<svg width="320" height="706" viewBox="0 0 320 706" fill="none" xmlns="http://www.w3.org/2000/svg">
<g filter="url(#filter0_d_501_42)">
<path fill-rule="evenodd" clip-rule="evenodd" d="M478.224 260.149C479.137 261.387 480.05 262.665 480.88 263.943C489.381 276.323 495.956 289.906 500.382 304.234C509.537 333.893 509.376 365.621 499.922 395.187C490.469 424.754 472.172 450.754 447.469 469.722C422.767 488.689 392.834 499.723 361.661 501.352C330.488 502.981 299.556 495.127 272.988 478.839C270.333 477.189 267.719 475.498 265.146 473.684C246.294 460.349 230.719 442.951 219.584 422.792C208.45 402.632 202.045 380.233 200.848 357.267C199.651 334.301 203.693 311.363 212.671 290.168C221.65 268.973 235.333 250.07 252.697 234.87C255.602 232.313 258.59 229.88 261.743 227.571C262.573 226.911 263.444 226.292 264.316 225.674C273.438 219.117 283.263 213.584 293.612 209.178C299.902 206.472 306.378 204.212 312.99 202.415C343.193 194.113 375.23 195.195 404.796 205.515C434.363 215.836 460.044 234.901 478.39 260.149H478.224Z" fill="url(#paint0_radial_501_42)"/>
<path style="mix-blend-mode:multiply" opacity="0.3" fill-rule="evenodd" clip-rule="evenodd" d="M410.961 207.816H409.757C407.545 207.802 405.336 207.995 403.16 208.394C401.334 208.765 399.799 209.713 398.18 210.167C395.293 210.926 392.327 211.355 389.342 211.445C385.773 211.445 382.495 212.641 378.927 212.889C369.549 213.548 360.544 208.765 351.913 206.002C350.065 205.451 348.262 204.762 346.519 203.94C345.201 203.389 343.797 203.068 342.369 202.991C339.172 202.276 335.828 202.594 332.825 203.899C331.083 204.806 330.419 206.661 329.381 208.394C328.344 210.126 327.431 211.486 329.921 212.517C334.278 214.249 339.796 215.363 339.423 221.301C339.363 225.046 339.03 228.781 338.427 232.477C337.556 236.601 337.805 241.714 334.859 245.137C332.659 247.653 328.676 247.529 325.564 248.354C322.696 248.858 319.906 249.732 317.265 250.952C315.552 252.228 314.005 253.71 312.659 255.365C311.609 256.675 310.16 257.612 308.529 258.036C306.899 258.46 305.174 258.347 303.613 257.715C302.409 257.097 302.492 256.602 300.957 256.602C299.392 256.804 297.875 257.279 296.476 258.004C292.699 259.612 289.38 262.416 285.604 263.942C282.882 264.863 280.112 265.634 277.305 266.252C275.638 266.963 273.918 267.543 272.159 267.984C271.205 267.984 269.96 267.984 268.964 267.984C266.257 267.848 263.596 268.715 261.495 270.417C256.019 274.642 251.483 279.95 248.175 286.005C246.308 289.634 247.511 291.283 250.499 293.345C253.486 295.407 257.304 296.645 258.549 299.614C259.17 302.25 259.627 304.922 259.918 307.614C260.073 308.864 260.484 310.069 261.127 311.154C261.769 312.239 262.629 313.182 263.653 313.924C268.121 315.676 272.694 317.15 277.346 318.336C282.077 320.481 287.679 325.8 285.645 331.285C284.894 333.967 284.668 336.767 284.981 339.533C284.981 341.471 285.604 344.11 283.363 345.059C281.869 345.677 279.628 344.77 278.093 345.059C277.308 345.374 276.607 345.866 276.046 346.495C275.484 347.125 275.077 347.876 274.856 348.688C273.516 351.215 272.512 353.904 271.869 356.688C272.005 359.392 272.84 362.016 274.294 364.306C275.748 366.595 277.771 368.474 280.168 369.761C285.064 372.4 289.836 375.328 295.563 374.338C299.256 373.72 302.617 371.328 306.351 373.142C308.634 374.297 309.671 376.318 311.455 377.885C313.363 379.28 315.178 380.796 316.891 382.421C318.392 384.133 320.044 385.706 321.829 387.122C324.329 389.278 326.962 391.275 329.713 393.102C333.083 394.67 336.618 395.859 340.253 396.649C343.257 397.329 346.309 397.784 349.382 398.009C352.974 398.307 356.507 399.098 359.88 400.36C362.287 401.638 364.611 403.164 367.101 404.484C374.113 407.659 377.101 400.113 379.092 394.793C380.595 391.283 381.641 387.596 382.205 383.823C382.406 380.715 382.92 377.634 383.74 374.627C384.587 371.657 385.64 368.75 386.894 365.926C387.552 364.91 388.043 363.796 388.346 362.627C388.443 360.599 387.826 358.602 386.603 356.977C384.191 352.709 381.264 348.748 377.889 345.183C374.196 341.966 370.171 345.43 367.059 347.574C366.231 348.323 365.227 348.852 364.139 349.111C363.051 349.371 361.914 349.353 360.835 349.059C358.926 348.111 357.971 346.214 355.814 345.348C354.76 344.897 353.585 344.806 352.474 345.09C351.363 345.373 350.378 346.015 349.672 346.915C348.926 347.698 348.635 348.605 347.805 349.389C346.975 350.172 345.938 350.214 345.772 351.451C345.315 354.049 349.34 354.296 351.166 354.832C354.403 355.781 354.901 356.152 355.316 359.451C355.648 361.348 355.98 364.441 353.573 365.018C351.872 365.431 348.842 363.245 347.266 362.833C340.543 361.018 333.738 359.204 333.697 350.832C333.697 348.234 334.942 347.533 335.73 345.306C336.519 343.079 335.73 340.316 336.601 337.925C337.888 334.832 341.996 333.017 344.651 331.079C348.014 328.696 351.599 326.638 355.357 324.934C357.596 324.024 359.993 323.561 362.412 323.573C364.984 323.326 366.561 321.099 368.76 320.109C372.91 318.336 376.478 319.862 380.669 320.728C384.265 321.64 387.53 323.541 390.089 326.213C396.781 331.626 402.799 337.814 408.015 344.646C411.94 350.927 416.561 356.75 421.791 362.008C424.385 364.265 427.16 366.306 430.09 368.111C431.045 368.689 431.169 368.111 431.75 369.472C432.204 370.889 432.469 372.358 432.538 373.844C432.142 376.432 431.531 378.984 430.713 381.473C430.106 383.66 429.329 385.797 428.389 387.865C427.227 390.999 425.941 393.927 424.696 396.978C422.704 401.927 426.314 406.752 425.277 412.031C423.783 419.536 419.052 424.114 414.903 430.299C411.361 434.987 408.119 439.89 405.193 444.98C403.855 448.3 402.345 451.548 400.67 454.713C397.895 458.533 394.874 462.17 391.624 465.6C389.32 468.496 386.509 470.955 383.325 472.858C381.204 473.768 379.151 474.829 377.184 476.033C373.449 478.714 369.756 481.477 365.98 484.075C363.86 485.222 361.558 486.003 359.175 486.384C356.81 487.044 354.278 487.498 351.872 488.157C345.523 489.848 337.805 493.972 331.124 491.91C329.215 491.292 327.39 490.219 325.398 489.766C323.769 489.622 322.13 489.622 320.501 489.766C319.189 489.664 317.871 489.664 316.559 489.766C314.571 489.818 312.586 489.582 310.667 489.065C308.877 488.817 307.062 488.817 305.272 489.065C304.192 489.377 303.077 489.557 301.953 489.601C300.791 489.353 300.874 488.694 300.086 487.91C299.297 487.126 298.177 486.549 297.222 485.724C294.563 483.098 290.971 481.617 287.222 481.6C285.502 481.951 283.749 482.117 281.994 482.095C278.733 482.051 275.586 480.901 273.072 478.837C273.072 478.837 273.072 479.085 273.072 479.167C304.148 498.076 340.977 505.385 376.976 499.787C377.585 498.797 378.166 497.807 378.719 496.818C380.381 494.078 382.706 491.796 385.483 490.178C389.095 487.594 392.457 484.681 395.525 481.477C398.311 478.752 401.339 476.281 404.571 474.095C408.72 471.25 411.874 467.579 415.982 464.693C419.906 462.277 424.079 460.286 428.43 458.754C434.404 455.499 439.621 451.031 443.742 445.64C445.817 443.455 447.062 440.527 449.22 438.465C450.547 437.186 452.041 436.279 453.369 434.877C456.724 431.346 460.6 428.343 464.863 425.969C467.56 424.567 469.926 425.969 472.623 425.639C475.32 425.31 477.312 422.67 479.636 421.516C481.05 420.888 482.601 420.623 484.145 420.746C485.689 420.868 487.178 421.374 488.474 422.217C498.298 404.343 504.43 384.7 506.511 364.44C508.591 344.179 506.579 323.709 500.591 304.232C497.147 306.748 493.993 313.264 491.877 314.501C490.59 315.284 489.055 315.326 487.727 316.274C486.621 317.18 485.631 318.219 484.781 319.367C483.246 320.975 481.295 322.996 479.096 322.006C476.897 321.017 476.316 316.563 473.37 317.883C471.917 318.666 471.419 320.522 469.718 321.347C468.349 321.869 467.052 322.561 465.859 323.409C463.927 325.012 462.111 326.749 460.423 328.605C459.506 329.359 458.427 329.895 457.27 330.172C456.203 330.858 455.078 331.451 453.909 331.945C450.63 332.399 450.962 328.481 450.879 326.378C450.942 325.196 450.942 324.013 450.879 322.831C450.595 321.876 450.161 320.971 449.593 320.151C448.475 317.342 448.387 314.233 449.344 311.367C450.587 307.05 451.201 302.578 451.17 298.088C451.346 296.365 451.103 294.626 450.464 293.016C449.842 291.696 449.219 290.376 448.639 288.892C447.956 287.359 447.401 285.772 446.979 284.149C446.356 281.881 444.987 280.025 444.282 277.757C443.427 275.089 443.299 272.243 443.908 269.509C444.282 268.602 445.236 268.107 445.568 267.076C445.9 266.045 445.568 265.262 446.066 264.355C447.394 262.21 452.166 261.303 454.365 260.684C457.922 259.745 461.632 259.521 465.278 260.024C468.735 260.713 472.124 261.707 475.403 262.994C477.239 263.634 479.195 263.86 481.129 263.653C480.299 262.375 479.387 261.097 478.474 259.86C461.416 236.476 437.993 218.42 410.961 207.816V207.816ZM388.388 310.913C388.72 311.944 387.35 313.635 386.479 314.089C384.694 314.996 382.329 314.089 380.213 314.089C378.196 314.012 376.289 313.154 374.902 311.697H376.644C374.321 310.913 371.333 310.707 371.208 307.573C371.185 306.828 371.453 306.102 371.956 305.549C372.458 304.995 373.157 304.657 373.906 304.604C376.532 303.836 379.301 303.681 381.997 304.15C383.624 304.811 384.962 306.024 385.773 307.573C386.834 308.645 387.767 309.835 388.553 311.119L388.388 310.913ZM363.656 222.291C363.82 224.205 363.306 226.116 362.204 227.693C361.255 229.112 360.077 230.366 358.718 231.405C355.729 232.932 352.317 233.439 349.008 232.848C347.224 232.848 342.909 231.982 347.266 230.58C346.153 230.045 345.175 229.27 344.402 228.312C343.97 227.487 343.595 226.632 343.282 225.755C342.494 223.899 342.535 221.879 341.871 219.982C341.393 218.422 340.753 216.916 339.962 215.487C339.216 214.332 338.178 213.59 338.635 212.064C338.713 211.664 338.93 211.304 339.249 211.047C339.568 210.791 339.967 210.654 340.378 210.662C341.513 210.804 342.628 211.081 343.697 211.486C344.817 211.734 345.896 212.023 346.975 212.352C350.17 213.177 352.909 215.239 356.021 216.476C357.701 216.9 359.309 217.567 360.793 218.456C361.507 218.869 362.129 219.422 362.621 220.081C363.113 220.741 363.465 221.492 363.656 222.291V222.291ZM455.61 249.509C455.942 252.601 453.079 255.653 451.004 257.756C447.436 260.579 443.388 262.743 439.053 264.148C437.537 264.799 435.89 265.096 434.24 265.014C432.373 265.014 430.422 265.592 432.704 264.355C430.747 262.912 428.876 261.356 427.102 259.695C424.725 257.725 422.246 255.881 419.675 254.169C415.098 251.271 411.364 247.233 408.845 242.457C408.145 240.779 407.863 238.959 408.022 237.15C408.181 235.341 408.776 233.596 409.757 232.065C411.416 229.985 413.652 228.436 416.189 227.611C419.167 226.834 422.269 226.652 425.318 227.075C428.299 227.29 431.167 228.302 433.617 230.003C435.319 231.322 436.729 232.972 438.555 234.127C439.468 234.745 440.34 235.281 441.211 235.941C442.331 236.664 443.565 237.194 444.863 237.508C446.699 237.901 448.367 238.852 449.634 240.23C450.838 241.756 451.875 243.364 453.037 244.931C454.367 246.169 455.317 247.756 455.776 249.509H455.61Z" fill="url(#paint1_linear_501_42)"/>
<path style="mix-blend-mode:multiply" opacity="0.3" fill-rule="evenodd" clip-rule="evenodd" d="M267.054 357.184C267.345 358.669 268.258 361.927 267.428 363.453C266.598 364.979 263.527 364.855 261.951 365.102C260.557 365.141 259.169 365.292 257.801 365.556C256.813 366.039 255.786 366.439 254.73 366.752C253.713 366.916 252.676 366.916 251.66 366.752C250.811 366.436 250.025 365.975 249.336 365.391C247.512 363.901 245.792 362.289 244.19 360.566C243.211 359.654 242.519 358.479 242.198 357.184C241.534 355.411 240.746 353.679 240.165 351.864C239.133 349.211 238.436 346.44 238.09 343.616C237.905 341.304 238.536 339 239.875 337.101C240.414 336.193 241.161 335.533 241.7 334.626C242.264 333.49 242.961 332.425 243.775 331.451C244.273 330.906 244.846 330.434 245.477 330.049C246.208 329.785 246.982 329.659 247.759 329.677C248.765 329.41 249.824 329.41 250.83 329.677C251.767 329.974 252.65 330.42 253.444 330.997C255.021 332.234 256.93 333.183 258.382 334.502C260.373 336.056 261.824 338.191 262.532 340.606C263.172 342.891 264.019 345.113 265.063 347.245C266.129 349.223 266.832 351.374 267.138 353.596C267.028 354.789 267 355.988 267.054 357.184V357.184Z" fill="url(#paint2_linear_501_42)"/>
<path style="mix-blend-mode:multiply" opacity="0.3" fill-rule="evenodd" clip-rule="evenodd" d="M262.905 373.968C262.695 374.92 262.782 375.913 263.154 376.814C264.565 376.608 265.852 378.546 267.304 377.886C267.304 376.608 268.508 374.422 266.723 373.762C266.474 373.762 265.935 373.762 265.644 373.762C265.354 373.762 264.856 373.35 264.482 373.391C264.109 373.432 262.2 374.999 261.494 375.494L262.905 373.968Z" fill="url(#paint3_linear_501_42)"/>
<path style="mix-blend-mode:multiply" opacity="0.3" fill-rule="evenodd" clip-rule="evenodd" d="M295.935 365.35C296.97 365.977 298.132 366.371 299.337 366.504C300.416 366.504 301.703 366.504 302.823 366.504C304.977 366.448 307.131 366.6 309.255 366.958C311.205 367.494 311.62 368.814 312.823 370.092C314.027 371.37 314.4 371.577 315.189 372.319C315.652 372.68 316.095 373.066 316.517 373.474C316.899 374.081 317.344 374.648 317.844 375.164C318.965 376.113 320.458 376.402 321.579 377.35C322.357 378.244 323.319 378.961 324.4 379.453C325.267 379.577 326.148 379.577 327.015 379.453C328.137 379.52 329.243 379.756 330.293 380.154C333.945 381.35 336.393 384.278 339.878 385.763C343.364 387.247 346.476 383.618 349.09 382.422C349.547 382.422 350.086 382.422 350.46 381.969C350.828 381.538 351.122 381.051 351.331 380.525C351.833 379.735 352.553 379.105 353.406 378.711C353.945 378.464 353.904 379 354.443 378.381C354.757 377.786 354.873 377.108 354.775 376.443C354.701 375.768 354.472 375.12 354.105 374.547C353.738 373.975 353.243 373.495 352.659 373.144L349.132 370.298C347.948 369.558 346.811 368.746 345.729 367.865C344.775 366.875 344.194 365.638 343.198 364.69C340.901 362.697 337.948 361.611 334.899 361.638C331.911 361.226 328.135 361.638 326.268 358.875C325.521 357.72 325.977 357.349 325.977 356.153C325.71 354.796 325.64 353.407 325.77 352.029C326.136 351.27 326.581 350.552 327.098 349.885C327.836 348.976 328.502 348.011 329.089 346.998C329.712 345.844 329.089 345.143 329.089 343.947C329.089 342.751 329.38 343.493 329.67 342.874C330.004 342.266 330.189 341.588 330.21 340.895C330.438 339.53 330.438 338.136 330.21 336.771C329.899 335.658 329.814 334.494 329.961 333.348C330.185 331.842 330.518 330.353 330.957 328.894C331.394 327.348 332.206 325.932 333.322 324.771C333.899 324.258 334.524 323.802 335.189 323.41C336.82 321.895 338.132 320.072 339.048 318.049C340.708 315.286 342.285 309.801 346.476 310.791C347.762 311.079 348.551 312.193 349.92 312.234C352.783 312.234 354.07 309.595 355.522 307.492C357.571 303.912 358.976 300.005 359.671 295.945C360.094 294.79 360.26 293.559 360.16 292.335C360.06 291.111 359.695 289.923 359.091 288.852C356.186 284.357 350.46 283.985 346.891 280.274C343.322 276.562 342.119 271.078 339.837 266.748C338.688 264.28 336.685 262.304 334.194 261.18C333.243 260.866 332.249 260.699 331.247 260.686C329.173 260.686 328.55 261.923 326.89 262.747C325.968 263.166 324.931 263.268 323.944 263.036C320.915 262.789 317.969 266.17 315.645 267.737C312.347 270.288 308.473 272.001 304.358 272.727C299.595 273.305 294.8 273.594 290.001 273.593C286.427 273.462 282.848 273.6 279.295 274.006C276.819 274.499 274.482 275.527 272.449 277.016C270.993 277.883 269.781 279.101 268.925 280.557C268.069 282.013 267.597 283.661 267.552 285.346C267.303 288.728 269.087 289.223 271.494 290.996C272.282 291.532 274.025 292.604 274.15 293.718C274.274 294.831 271.826 296.728 270.664 297.512C269.502 298.295 267.137 299.368 267.469 300.976C267.801 302.584 269.544 303.945 270.249 305.1C270.955 306.254 271.453 307.327 272.656 307.615C273.859 307.904 274.357 307.285 275.229 307.162C276.806 307.162 277.801 307.821 279.171 308.316C280.232 308.564 281.318 308.689 282.407 308.688C283.757 309.071 285.153 309.265 286.557 309.265C288.839 308.935 290.167 307.327 292.657 307.698C293.508 307.939 294.386 308.077 295.271 308.11C295.965 307.981 296.646 307.787 297.304 307.533C298.923 307.079 301.454 306.502 302.699 307.986C303.943 309.471 302.699 312.11 301.661 313.265C300.624 314.42 299.047 315.698 299.628 317.389C300.209 319.08 301.578 319.245 301.62 320.812C301.62 325.719 295.312 326.296 292.242 328.647C287.636 332.111 288.092 337.843 288.092 342.998C288.092 343.493 288.092 343.988 288.092 344.442C288.092 344.895 288.507 345.514 288.715 346.256C288.812 347.294 288.532 348.333 287.926 349.184C287.455 350.296 286.731 351.284 285.81 352.071C284.516 352.879 283.269 353.761 282.076 354.71C281.64 355.226 281.321 355.828 281.14 356.476C280.96 357.125 280.921 357.804 281.028 358.469C281.134 359.134 281.382 359.768 281.756 360.329C282.13 360.89 282.621 361.364 283.196 361.721C284.607 362.793 287.013 362.669 288.632 363.411C289.846 364.131 291.124 364.738 292.449 365.226C293.274 365.351 294.105 365.434 294.939 365.473C295.81 365.391 296.723 366.133 295.935 365.35Z" fill="url(#paint4_linear_501_42)"/>
<path fill-rule="evenodd" clip-rule="evenodd" d="M293.445 209.137L292.947 209.632C290.749 212.073 288.254 214.234 285.52 216.065C284.904 216.609 284.237 217.092 283.528 217.508C282.988 217.756 282.615 217.508 282.076 217.921C280.872 218.539 279.627 219.158 278.465 219.653C276.256 220.75 274.204 222.137 272.366 223.776C269.737 225.019 267.175 226.396 264.689 227.9C262.638 230.228 260.434 232.419 258.091 234.457L256.307 235.736C254.772 236.849 254.73 238.21 253.61 240.107C254.344 241.595 254.713 243.234 254.689 244.891C254.521 245.402 254.284 245.887 253.983 246.334C253.315 247.55 252.567 248.721 251.743 249.839C250.11 251.95 248.261 253.885 246.224 255.613C244.464 256.852 242.62 257.968 240.705 258.953C236.746 260.666 233.342 263.435 230.87 266.953C229.626 269.098 228.464 271.325 227.177 273.469C226.362 274.72 225.641 276.03 225.02 277.387C224.688 278.418 224.563 279.531 224.273 280.562C223.695 281.719 222.954 282.788 222.073 283.738C221.354 284.992 220.995 286.418 221.036 287.862C221.036 289.923 222.322 291.449 222.53 293.388C222.488 294.483 222.159 295.549 221.576 296.48C219.501 301.099 221.078 305.718 220.455 310.584C219.999 314.089 217.592 317.059 216.887 320.605C216.27 324.179 215.881 327.787 215.725 331.41C215.559 333.419 214.841 335.345 213.65 336.977C212.379 339.027 211.546 341.315 211.202 343.699C211.048 346.089 210.771 348.471 210.372 350.833C209.998 352.689 209.002 354.38 208.712 356.235C208.656 357.974 208.767 359.714 209.044 361.432C209.251 365.267 210.455 368.813 210.787 372.607C211.077 375.741 210.164 379.412 211.949 382.175C212.505 382.994 213.192 383.718 213.982 384.319C215.077 385.497 216.05 386.782 216.887 388.154C217.471 388.793 218.141 389.348 218.878 389.804C219.689 390.626 220.563 391.384 221.492 392.072C223.282 392.713 225.111 393.237 226.97 393.639C227.905 394.014 228.736 394.607 229.393 395.368C230.05 396.129 230.514 397.035 230.746 398.01C231.41 400.031 231.991 402.134 232.53 404.279C232.758 407.653 233.257 411.004 234.024 414.3C234.633 415.336 235.453 416.235 236.431 416.939C237.468 417.887 238.589 419.042 239.543 420.114C240.5 421.261 241.231 422.576 241.701 423.991C241.975 424.97 242.101 425.985 242.074 427.001C242.074 427.496 242.074 427.991 242.074 428.445C242.223 429.283 242.431 430.11 242.696 430.919C243.107 432.084 243.193 433.338 242.945 434.548C241.991 436.321 239.377 433.806 239.086 435.331C238.796 436.857 240.456 437.6 240.954 438.466C241.6 439.698 242.062 441.018 242.323 442.383C242.821 444.981 242.323 446.053 244.481 447.744C246.104 449.093 247.923 450.191 249.875 451.002C252.324 452.033 253.236 454.136 255.145 455.745C256.038 456.717 256.844 457.766 257.552 458.879C258.411 459.738 259.341 460.524 260.332 461.229C261.162 461.91 261.805 462.79 262.199 463.786C262.199 464.446 261.909 465.188 261.826 465.807C261.839 466.948 262.138 468.068 262.697 469.065C263.294 470.692 264.134 472.221 265.187 473.601C246.335 460.266 230.76 442.868 219.626 422.709C208.491 402.55 202.086 380.15 200.889 357.184C199.692 334.218 203.734 311.281 212.712 290.086C221.691 268.891 235.374 249.987 252.739 234.787C255.643 232.23 258.631 229.797 261.784 227.488C262.614 226.828 263.486 226.21 264.357 225.591C273.416 219.061 283.171 213.543 293.445 209.137V209.137Z" fill="url(#paint5_radial_501_42)"/>
</g>
<defs>
<filter id="filter0_d_501_42" x="0.642578" y="0.893555" width="706.664" height="704.728" filterUnits="userSpaceOnUse" color-interpolation-filters="sRGB">
<feFlood flood-opacity="0" result="BackgroundImageFix"/>
<feColorMatrix in="SourceAlpha" type="matrix" values="0 0 0 0 0 0 0 0 0 0 0 0 0 0 0 0 0 0 127 0" result="hardAlpha"/>
<feOffset dy="4"/>
<feGaussianBlur stdDeviation="100"/>
<feComposite in2="hardAlpha" operator="out"/>
<feColorMatrix type="matrix" values="0 0 0 0 0.305882 0 0 0 0 0.682353 0 0 0 0 0.992157 0 0 0 0.63 0"/>
<feBlend mode="normal" in2="BackgroundImageFix" result="effect1_dropShadow_501_42"/>
<feBlend mode="normal" in="SourceGraphic" in2="effect1_dropShadow_501_42" result="shape"/>
</filter>
<radialGradient id="paint0_radial_501_42" cx="0" cy="0" r="1" gradientUnits="userSpaceOnUse" gradientTransform="translate(235.032 346.675) rotate(-35.6217) scale(245.838 245.352)">
<stop offset="0.01" stop-color="#4FB1FF"/>
<stop offset="0.21" stop-color="#4EAEFC"/>
<stop offset="0.37" stop-color="#49A6F3"/>
<stop offset="0.5" stop-color="#4298E3"/>
<stop offset="0.63" stop-color="#3883CC"/>
<stop offset="0.75" stop-color="#2B69AF"/>
<stop offset="0.86" stop-color="#1A498B"/>
<stop offset="0.96" stop-color="#072462"/>
<stop offset="1" stop-color="#001652"/>
</radialGradient>
<linearGradient id="paint1_linear_501_42" x1="412.507" y1="491.075" x2="339.092" y2="202.11" gradientUnits="userSpaceOnUse">
<stop stop-color="#E8DDFF"/>
<stop offset="1" stop-color="#AA8AD8"/>
</linearGradient>
<linearGradient id="paint2_linear_501_42" x1="21233.1" y1="-10019.7" x2="21022.9" y2="-10313.1" gradientUnits="userSpaceOnUse">
<stop stop-color="#E8DDFF"/>
<stop offset="1" stop-color="#AA8AD8"/>
</linearGradient>
<linearGradient id="paint3_linear_501_42" x1="4466.5" y1="-2008.92" x2="4462.72" y2="-2014.21" gradientUnits="userSpaceOnUse">
<stop stop-color="#E8DDFF"/>
<stop offset="1" stop-color="#AA8AD8"/>
</linearGradient>
<linearGradient id="paint4_linear_501_42" x1="68712.1" y1="-30809.5" x2="66400.9" y2="-34035.1" gradientUnits="userSpaceOnUse">
<stop stop-color="#E8DDFF"/>
<stop offset="1" stop-color="#AA8AD8"/>
</linearGradient>
<radialGradient id="paint5_radial_501_42" cx="0" cy="0" r="1" gradientUnits="userSpaceOnUse" gradientTransform="translate(217.489 335.96) rotate(-35.6216) scale(98.095 97.9013)">
<stop stop-color="#A9FAFF"/>
<stop offset="1" stop-color="#70B7F8"/>
</radialGradient>
</defs>
</svg>
