<svg width="1440" height="5310" viewBox="0 0 1440 5310" fill="none" xmlns="http://www.w3.org/2000/svg">
<g filter="url(#filter0_d_325_9734)">
<path d="M147.949 529.988C147.949 595.357 128.951 656.322 96.1329 707.588C37.5153 799.184 -65.1598 859.949 -182.012 859.949C-308.631 859.949 -418.586 788.616 -473.923 683.953C-498.203 637.979 -511.945 585.573 -511.945 529.988C-511.945 387.781 -421.985 266.597 -295.848 220.24C-269.6 210.587 -242.225 204.335 -214.389 201.636C-203.732 200.582 -192.941 200.055 -182.015 200.055C-144.893 200.01 -108.031 206.252 -72.9929 218.516C-62.6165 222.128 -52.4316 226.267 -42.4781 230.919C70.0079 283.464 147.949 397.623 147.949 529.988Z" fill="url(#paint0_radial_325_9734)"/>
<g style="mix-blend-mode:multiply" opacity="0.2">
<path d="M-42.4773 230.919C-43.5323 231.686 -44.5602 232.5 -45.639 233.362C-46.8365 234.342 -48.1765 234.966 -49.2044 236.164C-50.4732 237.599 -51.3145 239.393 -52.3187 241.022C-55.5517 246.243 -57.6584 251.056 -58.5201 257.21C-59.168 261.878 -59.5004 269.135 -57.3225 273.494C-53.8046 280.533 -46.1885 282.735 -39.1968 284.628C-36.0113 285.49 -32.9242 286.663 -29.715 287.403C-25.9324 288.268 -22.0277 288.482 -18.2214 289.13C-12.4543 290.11 -6.77539 290.707 -1.55444 293.272C0.718475 294.395 3.16098 294.588 5.50854 295.497C7.52026 296.264 9.24023 297.149 11.3503 297.604C20.4013 299.497 30.6023 298.754 39.1275 302.777C45.1117 305.603 51.6252 307.527 57.4669 310.56C59.0003 311.35 60.0316 312.761 61.4903 313.67C62.8812 314.559 64.2687 315.397 65.6087 316.401C68.17 318.318 71.118 320.089 73.4384 322.314C75.4976 324.326 76.4916 326.579 77.8215 329.099C78.9002 331.135 80.3352 332.953 81.414 334.988C83.7239 339.356 85.3703 344.044 86.2991 348.897C86.8012 351.676 87.0624 355.411 85.5799 357.663C84.223 359.746 82.1536 360.533 79.8807 361.541C76.5765 362.976 73.0076 364.798 69.2726 364.557C66.9759 364.414 64.7708 363.695 62.447 363.576C60.304 363.469 58.1738 363.181 56.0794 362.715C50.0681 361.358 46.4551 358.956 42.2146 354.692C38.3608 350.838 34.5545 347.51 29.8831 344.589C23.9939 340.925 16.8325 337.93 9.79318 338.099C5.96313 338.171 4.21606 340.063 1.17307 341.858C-1.54086 343.463 -6.5108 342.048 -9.41132 340.949C-13.5297 339.368 -17.8924 337.896 -22.1498 340.111C-26.1699 342.218 -28.4937 346.217 -33.4738 346.407C-39.821 346.648 -45.8052 346.747 -51.9591 348.585C-54.9512 349.498 -57.6583 350.071 -60.1009 352.083C-61.7759 353.44 -63.3528 354.913 -64.8197 356.493C-66.4685 358.311 -67.8119 360.299 -69.7761 361.809C-72.1508 363.675 -74.634 365.161 -76.9341 367.172C-81.4177 371.088 -86.2327 374.606 -91.3247 377.689C-94.9411 379.87 -99.0832 381.234 -103.107 382.645C-109.091 384.752 -115.581 385.4 -121.304 388.226C-127.193 391.123 -132.007 395.889 -136.749 400.34C-140.722 404.051 -145.417 406.925 -149.247 410.758C-152.144 413.655 -152.958 417.102 -154.444 420.766C-158.563 430.991 -154.539 442.318 -158.108 452.492C-158.97 454.958 -160.381 457.187 -161.219 459.701C-162.312 463.042 -163.799 466.241 -165.649 469.23C-168.618 474.044 -172.281 478.39 -177.645 480.764C-180.542 482.033 -183.728 482.416 -186.625 483.614C-188.087 484.214 -189.379 484.859 -190.767 485.578C-191.964 486.175 -193.281 486.257 -194.624 486.752C-200.011 488.669 -201.409 493.432 -203.105 498.34C-204.462 502.293 -206.793 506.241 -205.524 510.601C-203.56 517.385 -193.65 519.964 -188.402 523.098C-185.122 525.062 -184.596 526.151 -185.529 529.659C-186.082 531.742 -186.272 534.544 -188.094 536.054C-189.841 537.489 -193.576 535.884 -194.702 537.706C-195.445 538.904 -194.39 540.508 -194.125 541.658C-193.742 543.382 -193.505 545.152 -193.108 546.9C-192.341 550.35 -192.09 552.599 -192.867 555.927C-193.922 560.357 -195.886 564.859 -196.507 569.432C-197.202 574.558 -192.819 578.724 -188.847 581.068C-185.715 582.941 -182.477 584.629 -179.148 586.123C-176.132 587.439 -173.33 588.731 -170.049 589.332C-167.105 589.882 -164.621 589.929 -161.69 590.886C-158.03 592.107 -154.963 594.217 -151.493 595.723C-148.904 596.826 -146.065 597.419 -143.517 598.62C-139.548 600.474 -135.461 602.06 -131.281 603.37C-128.814 604.113 -126.494 605.117 -124.459 606.762C-123.044 607.888 -121.945 609.636 -120.459 610.643C-115.91 613.696 -114.281 605.086 -117.728 602.763C-121.297 600.347 -125.965 600.13 -129.51 597.497C-133.055 594.865 -135.257 591.103 -137.723 587.609C-140.501 583.656 -143.422 580.518 -145.386 576.017C-147.11 572.115 -146.703 568.309 -146.726 564.116C-146.75 559.923 -146.584 556.168 -148.497 552.314C-150.102 549.081 -152.473 546.326 -153.983 543.022C-155.121 540.446 -155.739 537.671 -155.801 534.856C-155.849 531.888 -155.706 529.635 -157.158 526.979C-158.786 524.011 -158.763 522.308 -157.423 518.956C-155.652 514.478 -151.995 510.984 -148.467 507.846C-143.246 503.225 -137.38 499.538 -131.345 496.044C-124.56 492.068 -117.077 490.127 -109.607 487.949C-92.5087 482.922 -74.5255 477.701 -56.8781 483.329C-45.2183 487.061 -33.5552 490.297 -21.4883 492.356C-17.872 492.977 -14.4016 492.234 -11.1686 490.606C-7.64725 488.859 -4.63138 487.373 -0.652069 488.309C3.92093 489.384 8.87723 491.613 13.5215 491.589C17.952 491.589 22.0704 489.961 26.5721 490.799C30.2834 491.478 33.0177 493.143 36.3661 494.487C39.8874 495.922 40.8915 498.483 43.117 501.455C44.6266 503.49 45.6579 505.763 47.1166 507.798C48.1954 509.356 49.6542 510.648 50.8483 512.134C53.413 515.316 54.7292 518.502 55.998 522.382C57.355 526.572 56.8359 532.58 56.4526 536.97C55.903 543.293 55.5197 549.661 54.4646 555.967C53.5792 561.395 51.52 566.121 50.1325 571.389C48.8129 576.478 48.7755 582.476 49.454 587.649C50.2207 593.657 51.5132 598.844 50.4717 604.866C49.5388 610.155 48.4838 615.233 46.1158 619.996C43.6496 625.003 41.7803 630.173 39.1003 635.106C36.1523 640.534 32.156 645.141 28.8755 650.311C25.8563 655.006 22.6742 659.47 18.0198 662.618C15.2686 664.488 14.071 665.492 12.8022 668.63C11.8185 671.049 10.7906 672.986 10.2376 675.527C9.98291 676.978 9.6557 678.416 9.2572 679.835C8.5787 681.989 7.60507 683.787 6.62128 685.823C5.42715 688.408 5.40338 690.633 3.22885 692.814C2.10596 693.964 0.854156 694.704 -0.411224 695.664C-3.16248 697.747 -5.83911 699.056 -8.31216 701.53C-10.6597 703.925 -12.8852 706.391 -15.209 708.833C-17.7465 711.513 -20.932 713.288 -23.5645 715.849C-28.3139 720.422 -33.3584 725.619 -39.2002 728.74C-43.9496 731.278 -48.9703 734.104 -54.1268 735.613C-59.7321 737.22 -65.201 739.27 -70.4817 741.743C-75.3431 744.04 -80.011 744.498 -85.0895 745.455C-89.9033 746.364 -94.1642 749.023 -98.6185 751.222C-102.689 753.257 -106.136 755.866 -110.59 756.704C-114.745 757.474 -118.824 758.609 -122.779 760.096C-130.609 762.943 -138.174 766.881 -146.526 767.397C-149.613 767.566 -152.605 768.262 -155.686 768.333C-160.235 768.452 -164.713 767.926 -169.255 768.788C-174.188 769.721 -178.978 770.559 -183.958 771.23C-188.708 771.851 -192.697 773.025 -197.528 772.452C-200.354 772.092 -204.065 771.875 -206.65 770.63C-208.492 769.721 -210.338 768.309 -212.037 767.183C-216.108 764.405 -218.792 760.693 -223.555 759.16C-228.704 757.532 -234.163 758.61 -239.499 758.346C-245.459 758.061 -251.206 755.903 -256.692 753.773C-259.277 752.755 -261.984 751.619 -264.711 751.164C-267.765 750.638 -270.699 751.571 -273.691 751.843C-280.995 752.521 -288.251 754.095 -295.552 755.123C-301.492 755.961 -307.263 758.404 -313.322 758.38C-317.966 758.356 -322.756 757.135 -327.23 756.059C-332.112 754.886 -336.39 752.202 -341.261 751.269C-347.222 750.095 -353.135 748.755 -359.028 747.198C-363.601 746.001 -368.031 745.546 -372.597 744.484C-376.834 743.467 -380.905 742.473 -384.617 740.196C-387.85 738.232 -391.011 736.078 -394.316 734.26C-397.284 732.563 -400.493 731.505 -403.94 732.078C-405.636 732.367 -407.173 733.435 -408.872 733.683C-410.572 733.931 -412.513 733.276 -414.165 732.94C-418.836 731.922 -421.156 728.967 -423.935 725.28C-425.78 722.814 -426.33 721.375 -425.468 718.431C-423.528 711.581 -421.971 704.494 -427.025 698.676C-429.634 695.661 -433.776 692.258 -437.705 691.325C-441.633 690.392 -445.894 691.491 -449.772 692.004C-453.388 692.458 -456.716 691.786 -460.21 691.067C-463.036 690.47 -465.071 688.693 -467.673 687.526C-469.851 686.534 -471.935 685.348 -473.898 683.981C-418.561 788.644 -308.606 859.976 -181.987 859.976C0.257111 859.976 147.973 712.26 147.973 530.015C147.95 397.623 70.0087 283.464 -42.4773 230.919ZM-26.1224 761.776C-26.9603 767.76 -32.1575 773.578 -36.2997 777.649C-41.4731 782.775 -46.5007 787.707 -52.6308 791.683C-55.684 793.668 -58.5913 795.802 -61.7292 797.644C-64.6264 799.34 -68.0731 800.446 -71.3298 801.284C-76.622 802.641 -82.3213 802.817 -87.7084 803.509C-93.2903 804.27 -98.9099 804.723 -104.542 804.866C-109.02 804.937 -112.541 802.949 -116.205 800.483C-119.533 798.234 -120.276 795.768 -121.015 792.002C-121.639 788.82 -122.094 785.217 -121.47 781.971C-121.063 779.84 -120.452 777.995 -120.418 776.414C-115.367 771.325 -109.858 765.558 -103.609 761.857C-101.047 760.347 -98.4828 758.383 -95.7553 757.138C-93.3806 756.086 -90.7989 755.584 -88.3564 754.672C-82.5384 752.47 -76.9341 749.838 -70.9465 748.087C-67.8594 747.202 -64.6739 747.069 -61.5868 746.198C-58.236 745.262 -54.8174 744.59 -51.362 744.186C-48.9861 743.891 -46.5947 743.739 -44.2006 743.731C-41.7818 743.708 -39.9872 744.281 -37.6634 744.807C-34.0233 745.645 -29.9558 747.059 -27.8254 750.387C-25.6949 753.715 -25.5796 757.895 -26.1292 761.776H-26.1224Z" fill="#190024"/>
</g>
<g style="mix-blend-mode:multiply" opacity="0.2">
<path d="M-144.009 457.94C-140.037 449.905 -136.706 441.568 -134.046 433.009C-131.498 424.867 -128.133 418.371 -121.155 413.211C-108.823 404.089 -94.0729 399.488 -80.1504 393.558C-72.4462 390.275 -65.3832 385.841 -57.4415 383.042C-48.3973 379.867 -39.6313 376.142 -30.5565 373.044C-27.5916 372.027 -13.7675 366.992 -11.481 371.308C-9.58459 374.887 -15.6333 376.26 -15.0769 378.845C-11.8779 379.649 -7.32863 379.246 -4.14314 378.829C-0.157043 378.303 3.51357 377.18 7.5777 377.102C11.0956 377.031 14.7221 376.997 18.2401 377.102C24.3803 377.282 30.6326 379.32 36.6304 380.576C41.1796 381.529 44.7722 383.564 49.0874 385.128C51.3705 385.956 55.8722 386.869 57.5447 388.741C58.8338 390.193 58.7456 391.716 56.5473 392.408C55.1903 392.839 51.8793 391.771 51.1805 393.426C50.4545 395.153 53.8164 398.216 54.8579 398.935C62.7012 404.363 72.7834 403.464 81.0983 408.01C84.4398 409.835 87.0146 411.711 90.7836 412.563C94.1082 413.316 97.5447 412.902 100.795 413.618C107.763 415.178 113.737 422.458 117.346 428.205C120.461 433.158 122.676 438.42 125.719 443.356C129.325 449.215 130.312 456.142 132.755 462.438C137.365 474.332 138.63 487.101 140.259 499.68C141.84 511.893 143.125 524.977 140.666 537.136C138.583 547.422 138.067 558.06 136.154 568.417C134.118 579.429 132.724 590.468 131.137 601.538C130.516 605.87 130.478 610.358 130.027 614.741C129.481 620.07 128.195 625.112 127.1 630.346C126.004 635.581 123.792 641.07 121.841 646.056C120.613 649.188 119.972 652.604 118.449 655.609C116.705 659.073 112.644 665.244 108.445 666.017C107.003 666.285 104.374 663.982 102.996 663.232C100.965 662.088 99.0131 660.807 97.1546 659.399C94.0132 657.085 92.8191 654.972 92.0863 650.986C91.8014 649.445 91.9812 647.963 91.7098 646.423C91.3061 644.143 90.6921 642.79 91.2043 640.347C91.9201 636.893 91.6555 633.827 91.8624 630.363C91.9744 628.494 92.7343 626.828 92.8802 624.966C93.0939 621.838 92.5409 618.744 93.0328 615.62C94.0505 609.055 93.328 603.6 92.127 597.114C91.7437 595.051 91.7641 592.202 89.4504 591.418C88.6769 592.775 87.8322 593.647 87.3675 595.112C86.7958 597.128 86.4902 599.209 86.4583 601.304C86.3158 605.432 86.516 609.13 85.6815 613.177C85.1047 615.986 84.9385 618.836 84.1413 621.617C83.1846 624.962 81.7869 628.362 80.586 631.639C78.4115 637.552 76.0775 643.285 73.8012 649.144C69.0721 661.292 60.7301 671.079 51.8217 680.266C47.9339 684.275 43.5034 687.837 39.5513 691.83C35.2056 696.217 30.2255 699.915 25.1165 703.297C13.9215 710.716 2.04802 718.529 -8.08853 727.424C-14.2967 732.875 -21.0578 738.707 -28.6297 742.059C-32.8465 743.928 -33.3791 740.098 -30.5565 737.628C-26.082 733.717 -19.867 732.4 -15.1176 728.614C-7.25398 722.352 0.260208 715.672 7.58444 708.799C17.8669 699.151 28.397 689.697 38.1875 679.601C41.5189 676.161 43.9207 671.971 46.5566 668.002C49.0161 664.297 52.2118 660.729 54.1081 656.698C57.0629 650.416 59.6955 643.041 60.8727 636.205C61.8225 630.685 63.8885 625.349 64.6382 619.809C65.0148 617.014 64.6857 614.062 64.7027 611.24C64.7027 609.12 64.818 607.742 63.573 605.927C61.9786 606.124 61.6495 609.998 61.3272 611.257C60.452 614.687 59.7294 618.815 58.1519 622.004C57.7346 622.856 55.7195 626.94 54.7052 626.855C52.9615 626.709 53.752 620.844 53.9996 619.711C54.7392 616.318 55.6958 612.984 56.3132 609.534C57.141 605.032 57.297 600.432 58.3487 595.964C59.3155 591.893 60.1976 587.357 60.1637 583.178C60.1297 579.08 61.541 575.284 62.4332 571.304C63.5018 566.524 64.2617 561.68 65.2556 556.887C66.6126 550.339 68.4411 543.995 69.8015 537.489C71.1619 530.982 72.5392 524.475 73.3635 517.87C74.31 510.319 73.5128 502.727 75.5449 495.273C76.1487 493.065 78.0281 486.64 81.4884 488.312C84.8571 489.944 85.505 496.817 87.5948 499.687C90.1526 503.218 91.3977 507.15 93.7724 510.821C95.8078 513.962 96.4863 516.744 100.805 516.062C106.548 515.156 109.605 507.242 110.124 502.184C110.429 499.209 109.958 496.417 109.374 493.56C109.082 492.156 109.374 490.846 109.221 489.459C109.052 487.946 108.316 486.721 108.241 485.195C107.902 478.41 106.138 471.805 104.635 465.105C103.668 460.806 102.488 456.932 100.479 452.98C97.331 446.779 93.3551 442.803 88.4123 438.091C79.592 429.654 68.0137 425.074 56.0486 422.971C52.6019 422.367 48.0934 421.905 44.7417 423.052C42.2177 423.914 38.0179 425.664 38.3334 428.89C38.6726 432.398 41.7258 435.546 43.9105 438.013C47.4047 441.931 52.2525 445.476 56.7271 448.17C61.6631 451.138 68.1019 454.432 71.8471 458.856C74.8766 462.438 76.0368 466.285 76.5524 470.872C76.7729 472.812 77.1698 477.209 75.6636 478.634C73.7537 480.442 69.0959 480.072 67.0095 479.234C62.5688 477.45 59.4648 474.373 56.1233 471.092C52.5857 467.722 48.6061 464.848 44.2939 462.55C39.8532 460.175 34.5033 457.499 29.5945 456.301C24.4414 455.043 18.3826 453.564 13.0802 453.377C9.20265 453.238 -22.7676 450.195 -22.3367 455.036C-18.0996 456.44 -13.7776 455.928 -9.39801 456.074C-4.58755 456.233 -0.32666 457.37 3.79173 459.806C5.89503 461.047 6.71941 462.36 3.75104 462.496C0.158447 462.662 -3.13901 462.618 -6.70784 463.174C-9.1877 463.571 -11.6676 463.266 -14.1712 463.571C-17.3397 463.961 -20.1079 464.314 -23.3307 464.297C-29.7793 464.245 -36.221 463.861 -42.6302 463.147C-48.9265 462.469 -55.1822 461.56 -61.4785 460.854C-66.9064 460.243 -72.3343 459.266 -77.7621 458.839C-82.9695 458.432 -88.1497 457.299 -93.3469 456.953C-99.3345 456.556 -106.55 457.76 -112.219 459.667C-125.449 464.077 -137.462 471.377 -149.675 477.928C-155.303 480.947 -160.941 483.017 -165.999 486.979C-169.907 490.032 -174.511 492.169 -178.402 495.223C-182.008 498.055 -186.001 501.461 -188.854 505.037C-190.017 506.492 -191.252 507.9 -192.046 509.589C-192.613 510.797 -192.796 512.063 -193.725 513.063C-195.211 509.471 -193.047 503.48 -191.435 500.386C-188.874 495.494 -184.4 491.688 -179.396 489.32C-169.103 484.411 -159.139 478.841 -149.566 472.646C-145.74 470.183 -144.308 468.263 -142.849 464.07C-142.089 461.872 -142.249 459.938 -144.009 457.94Z" fill="#5A4862"/>
</g>
<g style="mix-blend-mode:soft-light" opacity="0.5">
<path d="M1.47324 299.748C1.66661 299.86 4.44837 301.716 5.60858 302.004C5.88337 302.072 6.28708 302.065 6.59239 302.146C8.32931 302.598 10.0628 302.716 11.8167 303.062C16.1115 303.904 20.2164 305.322 24.5722 305.922C26.5466 306.197 28.5447 306.417 30.5259 306.624C32.6081 306.832 34.658 307.288 36.6323 307.981C38.5354 308.633 40.4386 309.247 42.3044 310.017C44.2788 310.824 46.4941 311.564 48.1971 312.87C50.8296 314.905 51.9592 318.182 54.4832 320.282C57.6449 322.905 60.7897 325.371 63.4765 328.526C64.803 330.083 65.7834 331.793 66.8011 333.553C67.6628 335.043 68.7042 336.43 69.5388 337.93C70.621 339.877 71.9135 342.34 71.944 344.599C71.944 345.454 72.2493 346.587 71.0281 346.333C69.3963 345.993 67.6831 345.729 65.9971 345.407C63.8633 344.999 61.7125 344.667 59.5515 344.874C55.9555 345.213 52.0474 345.505 48.5024 344.667C46.7654 344.257 44.8487 344.056 43.2272 343.279C41.7616 342.584 40.3775 341.668 38.9561 340.884C36.4152 339.483 34.6104 336.539 34.1796 333.696C33.8132 331.26 35.3296 328.909 34.5663 326.504C33.7046 323.79 30.6684 321.907 28.348 320.608C24.4739 318.444 20.3148 317.121 16.2269 315.482C15.2329 315.085 14.2627 314.63 13.2619 314.247C11.9049 313.721 10.3851 313.368 9.15025 312.551C7.72356 311.604 6.3634 310.56 5.07934 309.427C3.81058 308.283 2.72843 306.933 1.46984 305.776C0.696371 305.067 -0.0228576 304.789 -0.049997 303.67C-0.0737439 302.723 0.441942 301.783 1.47324 299.748Z" fill="#43DFF6"/>
</g>
<g style="mix-blend-mode:soft-light" opacity="0.5">
<path d="M1.77485 313.969C0.39074 314.037 -0.992231 314.15 -2.37408 314.308C-2.66583 314.681 -2.94399 315.065 -3.2086 315.458C-3.88709 316.449 -4.38916 317.276 -4.30774 318.511C-4.17544 320.547 -3.31376 322.022 -1.63791 323.054C0.791068 324.55 5.19104 326.633 7.52163 323.977C8.60382 322.755 8.03729 321.137 7.44361 319.797C7.15526 319.149 6.84653 318.44 6.53443 317.823C6.24607 317.249 5.82883 316.91 5.45906 316.401C4.96383 315.61 4.22606 314.999 3.35573 314.661C2.81422 314.47 2.25146 314.346 1.67989 314.291C1.19138 314.21 0.75034 313.928 0.251654 313.982L1.77485 313.969Z" fill="#43DFF6"/>
</g>
<g style="mix-blend-mode:soft-light" opacity="0.5">
<path d="M-57.5033 524.784C-58.9383 531.21 -60.2444 537.675 -62.826 543.741C-64.2105 547.161 -64.8657 550.832 -64.7495 554.519C-64.6512 559.441 -67.0055 563.475 -67.6941 568.234C-68.471 573.605 -66.1336 578.714 -63.5961 583.327C-60.7872 588.416 -56.3329 593.6 -51.363 596.676C-45.1684 600.507 -37.6441 602.104 -30.8592 604.479C-25.5772 606.335 -20.8685 606.738 -15.3389 606.05C-8.42514 605.188 -1.3791 600.154 3.46867 595.408C7.99756 590.97 12.3806 586.567 16.1699 581.465C19.5047 576.973 21.3739 571.837 24.0234 566.979C28.481 558.803 30.1297 545.644 21.7505 539.382C20.1933 538.222 18.4904 537.754 16.6076 537.519C14.5721 537.268 12.3704 536.841 10.3078 536.804C7.52602 536.773 4.79514 537.75 2.00656 537.516C0.319847 537.346 -1.33286 536.93 -2.89886 536.281C-4.62561 535.576 -5.97242 534.9 -7.87896 535.05C-9.84461 535.245 -11.7344 535.91 -13.3883 536.99C-14.9735 538.058 -16.4395 539.293 -17.7611 540.674C-18.6092 541.563 -19.6981 542.781 -21.0483 542.835C-22.4731 542.89 -24.5832 541.685 -25.8588 541.007C-28.9697 539.351 -31.6734 537.211 -34.2449 534.829C-38.7296 530.677 -42.4274 525.738 -48.3573 523.475C-50.3114 522.725 -53.3544 522.308 -54.9318 523.712C-56.3126 524.95 -56.774 526.464 -57.5033 524.784Z" fill="#43DFF6"/>
</g>
<g style="mix-blend-mode:soft-light" opacity="0.5">
<path d="M-2.44737 630.645C-1.12885 628.107 0.202114 625.578 1.54551 623.056C2.34612 623.036 2.90247 622.652 3.73361 622.859C4.83275 623.124 5.76907 624.162 6.19991 625.156C7.48224 628.114 7.21763 631.88 7.21763 635.028C7.26039 636.818 7.10798 638.607 6.76306 640.364C6.5663 641.307 6.65111 642.515 5.87085 643.241C5.35376 643.571 4.81417 643.865 4.25606 644.12C2.83463 644.798 1.4573 644.391 -0.038763 644.611C-1.78586 644.869 -2.3897 645.388 -3.92307 644.272C-4.64566 643.743 -5.72446 643.254 -6.06031 642.471C-6.70845 640.922 -6.7448 639.184 -6.16206 637.609C-5.5892 636.114 -4.85554 634.685 -3.97397 633.349C-3.29548 632.222 -1.83675 630.916 -1.73837 629.559L-1.24984 629.441L-2.44737 630.645Z" fill="#43DFF6"/>
</g>
<g style="mix-blend-mode:soft-light" opacity="0.5">
<path d="M-93.1953 842.366C-92.8086 842.366 -85.6506 842.777 -83.7508 842.295C-82.6686 842.024 -81.5932 841.379 -80.5721 840.907C-76.9253 839.228 -73.007 837.583 -69.6926 835.286C-62.806 830.52 -57.1406 824.553 -51.2887 818.623C-45.4368 812.693 -40.0937 806.41 -34.0213 800.721C-30.846 797.735 -27.8674 795.33 -23.7558 793.797C-22.1987 793.217 -22.6261 793.458 -21.4592 793.966C-20.5737 794.357 -19.7629 795.049 -18.7893 795.211C-17.992 795.33 -17.1814 795.33 -16.3841 795.211C-14.9932 794.947 -13.5887 794.764 -12.1944 794.482C-6.40356 793.312 -2.28179 788.084 1.77555 784.274C3.96027 782.239 6.12124 780.129 8.43148 778.229C9.48313 777.364 10.5145 776.316 11.6034 775.491C13.1334 774.334 14.9042 773.568 16.3867 772.33C19.4705 769.758 21.9876 766.406 24.325 763.15C25.5768 761.403 26.4249 759.418 27.6394 757.647C28.4875 756.402 29.5765 753.949 31.4321 753.977C34.258 754.017 36.9075 759.211 37.3621 761.44C38.2102 765.606 38.4477 770.26 37.6742 774.463C37.1111 777.517 35.3809 780.027 33.8916 782.707C31.6368 786.842 28.8843 790.686 25.6955 794.153C18.4222 802.034 9.66295 808.805 0.737488 814.718C-3.45554 817.493 -7.96408 819.759 -12.0689 822.673C-16.3434 825.703 -20.3464 828.807 -24.855 831.493C-28.6545 833.749 -32.3183 836.205 -36.1958 838.343C-40.2464 840.582 -44.5887 841.983 -49.087 843.017C-55.0407 844.374 -61.1912 844.826 -67.2094 845.833C-69.6451 846.24 -72.0537 846.885 -74.4827 847.343C-76.148 847.672 -77.7716 848.185 -79.3237 848.873C-82.0376 850.121 -84.3174 849.531 -86.8922 848.065C-89.2499 846.725 -90.383 845.07 -93.1953 842.366Z" fill="#43DFF6"/>
</g>
<g style="mix-blend-mode:soft-light" opacity="0.5">
<path d="M4.73438 397.789C4.88703 397.341 6.07437 392.405 7.60096 393.857C7.9843 394.223 7.97752 394.831 8.11321 395.319C8.32336 395.881 8.43803 396.474 8.45246 397.073C8.40836 398.21 7.97412 399.254 6.71214 399.034C5.78601 398.871 5.2907 398.186 4.74113 397.545L4.73438 397.789Z" fill="#43DFF6"/>
</g>
<g style="mix-blend-mode:multiply" opacity="0.2">
<path d="M86.3622 415.389C83.8246 413.93 80.9987 413.14 78.1729 412.444C76.2324 411.966 74.2919 412.132 72.3073 412.105C69.6477 412.105 67.3001 412.943 64.6914 413.35C57.1738 414.571 49.629 414.788 42.0877 415.65C40.4593 415.816 38.8784 415.674 37.2738 415.721C35.9575 415.769 34.7363 416.152 33.42 416.2C29.7562 416.342 26.1873 417.014 22.5642 417.662C20.8884 417.947 12.1495 421.828 11.1216 418.931C10.7145 417.781 12.0546 416.318 12.75 415.579C14.7854 413.421 18.015 412.441 20.7696 411.65C24.0571 410.732 27.2878 409.621 30.4448 408.323C33.437 407.054 35.4962 405.208 37.9387 403.149C40.5475 400.947 43.8755 395.896 41.6704 392.633C38.6172 388.107 31.8765 388.799 27.0389 388.969C23.7822 389.087 20.5932 389.495 17.2958 389.471C13.3199 389.447 8.93688 388.226 5.13058 387.171C2.97639 386.574 0.869698 386.357 -1.31503 386C-3.39797 385.661 -5.38593 385.064 -7.46888 384.704C-12.4965 383.867 -17.7886 383.222 -22.8162 384.084C-25.6896 384.586 -28.3492 385.878 -31.053 386.886C-34.1376 388.072 -37.1587 389.417 -40.104 390.916C-42.5703 392.141 -45.1926 393.576 -47.3366 395.326C-48.6291 396.381 -50.7291 398.247 -51.36 399.875C-52.795 403.42 -45.6133 403.492 -43.9849 403.492C-41.2302 403.492 -38.4756 403.444 -35.7243 403.492C-33.7839 403.515 -30.863 403.638 -29.9776 405.744C-29.4009 407.132 -30.1201 408.713 -31.2701 409.622C-33.7601 411.634 -38.116 411.681 -41.1353 412.231C-48.1746 413.503 -55.1901 414.388 -62.3481 414.388C-65.1265 414.388 -67.9049 414.459 -70.707 414.412C-73.5091 414.364 -77.1526 414.314 -79.5273 412.59C-81.444 411.179 -79.9819 408.736 -78.8115 407.227C-78.3298 406.63 -77.0848 405.575 -76.9186 404.832C-76.7252 403.946 -76.9898 404.041 -77.7565 403.946C-78.954 403.804 -79.9581 404.425 -81.1794 404.401C-82.6178 404.401 -83.8628 404.282 -84.1241 404.401C-86.3766 404.74 -89.2975 404.855 -91.5501 405.758C-92.8377 406.298 -94.0927 406.914 -95.3089 407.6C-98.7318 409.371 -101.941 410.952 -105.028 413.367C-106.443 414.493 -107.664 415.786 -108.98 417.055C-110.107 418.133 -111.494 418.876 -112.644 419.952C-113.411 420.695 -115.877 422.801 -115.182 423.928C-114.585 424.884 -112.807 425.078 -112.095 425.939C-111.077 427.137 -111.253 428.189 -111.972 429.386C-113.075 431.208 -114.585 432.236 -116.091 433.674C-117.146 434.692 -118.845 435.37 -119.012 437.002C-118.391 437.263 -117.767 437.026 -117.17 436.856C-115.375 436.33 -113.601 435.469 -111.877 434.702C-107.83 432.884 -103.854 430.753 -99.641 429.339C-96.2893 428.212 -92.6017 427.52 -89.1245 426.991C-84.8602 426.313 -80.3822 425.101 -76.0263 425.817C-74.1334 426.106 -70.5984 427.327 -70.1099 429.457C-69.9137 430.465 -69.9057 431.5 -70.0862 432.51C-70.2321 433.301 -70.9479 434.02 -70.9954 434.807C-71.07 436.246 -68.5799 436.164 -67.4774 436.164C-63.9798 436.117 -60.3907 436.378 -56.9168 435.947C-40.0599 433.84 -23.705 427.466 -6.58682 427.52C-2.58715 427.544 1.34127 427.686 5.28666 426.92C9.11174 426.143 12.8864 425.136 16.5902 423.904C20.2778 422.706 24.1078 422.886 27.9616 422.971C29.5662 423.018 31.0996 423.402 32.711 423.473C34.699 423.592 36.6631 423.161 38.624 422.873C42.6949 422.299 46.4266 420.813 50.4296 419.999C55.5556 418.924 60.8477 418.038 66.0348 417.414C71.0386 416.841 75.5641 416.434 80.5713 417.2C82.946 417.54 85.5276 417.879 87.8481 418.469C88.7097 418.659 89.646 419.148 90.5077 418.808C89.9276 417.519 87.5834 416.061 86.3622 415.389ZM-47.8251 428.894C-48.6631 430.689 -50.1252 431.91 -51.9435 432.724C-53.5481 433.403 -55.9432 434.258 -57.7107 434.376C-59.1253 434.475 -59.8886 433.827 -60.9911 433.108C-62.0936 432.388 -62.5957 431.958 -62.9078 430.618C-63.2912 428.965 -63.1216 428.297 -62.7857 426.645H-62.3311C-59.6172 424.752 -58.189 423.388 -55.1256 422.981C-53.8806 422.812 -52.7068 422.428 -51.4381 422.547C-49.9997 422.717 -47.1263 423.266 -46.5292 424.922C-46.0068 426.404 -47.2281 427.642 -47.8251 428.894ZM14.7888 394.078C16.6581 392.69 19.2906 392.212 21.5737 392.141C24.7354 392.019 28.1109 391.852 31.103 393.05C32.7992 393.728 33.2843 394.773 32.063 396.232C30.5297 398.054 28.3008 398.868 26.1229 399.512C23.9364 400.208 21.8074 401.074 19.7553 402.101C18.7376 402.603 17.9811 403.227 16.9057 403.607C16.0678 403.946 15.5148 404.089 14.8703 404.757C13.7398 403.316 12.9302 401.651 12.4956 399.872C9.93089 399.563 12.7296 395.587 14.7888 394.078ZM-4.00519 396.018C-2.09187 396.639 -0.175171 397.311 1.69405 398.03C1.31071 398.603 1.59569 399.048 1.45321 399.658C1.35822 400.16 0.927383 400.337 0.903633 400.927C-0.677231 401.141 -2.32934 402.962 -4.05269 402.284C-4.36479 402.165 -4.58192 401.687 -4.91777 401.541C-5.17899 401.422 -5.53857 401.494 -5.82692 401.375C-6.52542 401.005 -7.14986 400.509 -7.66902 399.913C-8.41196 398.98 -7.95739 398.047 -7.21445 397.199C-6.32903 396.184 -5.27396 396.042 -4.00519 396.018ZM-31.4838 398.03C-32.3455 398.006 -37.329 398.749 -37.4477 397.168C-37.519 396.259 -35.5785 395.323 -35.0527 394.844C-32.946 392.928 -30.863 392.69 -27.8438 391.706C-29.1397 391.493 -27.1992 389.888 -24.587 389.315C-21.3812 388.596 -17.9311 388.043 -14.6506 388.636C-12.6627 388.996 -8.52052 389.976 -7.58761 392.059C-6.82092 393.81 -7.75381 395.557 -9.26344 396.49C-12.5202 398.478 -15.8957 399.004 -19.6816 398.98C-23.6881 398.963 -27.552 398.172 -31.494 398.03H-31.4838ZM1.2225 422.262C-2.46506 423.314 -6.39006 423.89 -10.1489 424.776C-14.196 425.732 -18.9387 426.211 -23.1045 425.732C-26.1204 425.424 -30.1201 425.088 -32.1555 422.476C-33.2818 421.017 -33.258 418.717 -32.9222 416.946C-32.1555 412.851 -30.6696 409.547 -27.7013 406.603C-26.5987 405.476 -25.7371 404.906 -24.1562 404.686C-23.0805 404.529 -22.0172 404.296 -20.9741 403.99C-18.1957 403.129 -15.4173 402.891 -12.4014 402.437C-15.8719 403.56 -14.0976 403.583 -11.723 403.56C-10.0112 403.527 -8.31015 403.836 -6.71913 404.469C-4.56494 405.212 -2.21741 405.405 -0.134468 406.314C3.79396 408.061 9.8732 410.168 11.3353 414.67C12.7805 419.246 4.18412 421.4 1.21236 422.262H1.2225Z" fill="#5A4862"/>
</g>
<path d="M131.859 585.254C131.931 581.231 131.832 577.207 131.832 573.184V560.781C131.832 556.951 132.646 553.884 133.104 550.197C134.037 542.822 133.053 534.66 133.053 527.237C133.057 517.777 131.948 508.349 129.749 499.148C128.552 494.001 128.579 488.78 126.998 483.777C125.848 480.16 124.963 476.425 123.945 472.761C121.767 464.932 122.103 456.817 120.379 449.015C119.052 442.928 116.798 437.081 113.696 431.679C110.304 425.692 107.688 419.562 103.546 414.079C99.594 408.882 96.4221 403.183 92.8906 397.724C89.1047 391.835 83.3104 387.452 80.6779 380.725C79.6602 378.16 79.2158 375.575 78.4999 373.038C77.9232 370.979 76.8037 369.54 77.5161 366.979C78.1166 364.801 79.9587 363.926 79.6229 361.497C79.2395 358.783 77.0853 354.671 75.959 352.086C72.3224 343.731 64.6114 336.257 58.6577 329.506C53.8201 324.048 50.0375 318.084 44.7487 313.009C40.7016 309.128 36.7528 304.507 32.3935 301.203C27.1997 297.326 20.1096 294.642 14.0032 292.583C11.4419 291.721 9.28775 290.022 6.96393 289.089C4.42639 288.071 0.379242 288.848 -2.32452 288.848C-9.78787 288.848 -18.0586 289.638 -24.667 286.287C-26.5091 285.327 -28.2562 283.844 -30.2204 283.078C-32.6392 282.121 -35.1292 281.721 -37.2834 280.085C-40.4452 277.643 -43.8444 273.64 -43.6307 269.454C-43.4136 265.79 -40.2077 262.126 -39.3189 258.598C-38.386 254.839 -37.3818 248.397 -41.0932 245.551C-46.694 241.263 -55.1005 239.705 -61.6614 238.03C-71.8624 235.397 -82.6368 236.642 -92.5732 233.338C-95.0632 232.5 -97.2174 230.654 -99.4462 229.793C-101.984 228.812 -106.102 228.382 -108.857 228.31C-112.975 228.236 -116.999 228.717 -120.995 227.734C-124.445 226.896 -127.78 227.591 -131.267 227.055C-133.808 226.624 -137.733 225.956 -139.504 223.849C-140.919 222.173 -140.63 219.49 -141.828 217.719C-144.487 213.814 -152.602 211.85 -156.72 210.822C-162.277 209.408 -168.981 210.144 -174.822 210.222C-178.032 210.249 -180.763 209.204 -183.873 209.001C-185.695 208.882 -187.035 208.451 -188.782 208.068C-190.339 207.728 -191.73 208.068 -193.284 207.854C-198.841 207.175 -204.564 205.506 -209.927 204.166C-216.848 202.44 -223.073 203.149 -230.16 205.052C-234.855 206.321 -239.523 207.684 -244.191 209.001C-249.415 210.493 -254.504 212.841 -259.83 213.58C-270.845 215.11 -281.694 218.367 -292.658 219.758C-293.713 219.9 -294.765 220.043 -295.844 220.236C-269.596 210.584 -242.221 204.331 -214.385 201.632C-203.728 200.578 -192.937 200.051 -182.011 200.051C-144.889 200.006 -108.027 206.248 -72.9887 218.513C-62.6134 222.125 -52.4296 226.266 -42.4772 230.919C70.0155 283.478 147.956 397.623 147.956 529.988C147.956 595.357 128.959 656.322 96.1406 707.588C96.3068 706.75 96.4798 705.913 96.6901 705.075C98.5322 697.699 103.947 691.21 106.698 684.265C110.65 674.329 116.756 665.733 119.748 655.342C121.258 650.073 122.646 644.805 124.61 639.679C126.238 635.442 126.476 630.859 127.324 626.367C129.02 617.099 130.716 608.17 130.655 598.685C130.614 594.064 131.785 589.8 131.859 585.254Z" fill="url(#paint1_radial_325_9734)"/>
<path d="M-10.9531 295.972C-7.30966 299.365 -4.14792 302.676 -0.0532684 305.488C1.58527 306.614 2.84724 308.042 4.29919 309.372C5.61546 310.576 7.05043 311.638 8.43114 312.765C12.5563 316.157 18.3811 317.66 23.3578 315.021C25.1286 314.081 25.9361 313.324 26.7265 311.516C27.3575 310.054 27.4966 307.9 26.7706 306.428C25.6715 304.175 23.178 302.832 21.6243 300.959C20.8813 300.06 19.8772 299.531 18.9816 298.815C18.086 298.099 17.4109 297.326 16.5594 296.644C15.3449 295.663 14.0524 294.544 12.6615 293.811C11.0467 292.963 9.39802 292.753 7.6611 292.349C5.1507 291.766 1.7956 291.45 -0.775857 291.935C-1.53237 292.078 -2.10572 292.339 -2.88597 292.359C-3.49322 292.376 -4.01223 292.261 -4.59912 292.441C-5.71771 292.86 -6.78705 293.4 -7.78801 294.052C-8.54658 294.51 -9.19886 295.124 -9.70134 295.853C-10.3866 296.966 -9.84041 297.909 -10.9531 295.972Z" fill="url(#paint2_radial_325_9734)"/>
<path d="M30.8889 314.573C35.0752 314.339 38.108 313.708 41.134 316.893C42.491 318.335 43.546 319.583 44.3365 321.381C44.9607 322.806 45.4594 323.916 44.0651 325.028C42.9083 325.951 41.1612 326.158 39.7465 325.846C37.6364 325.381 36.0861 324.055 34.5086 322.715C33.9353 322.23 33.2127 321.904 32.6699 321.388C32.0763 320.825 32.0423 320.316 31.6861 319.665C31.1705 318.729 30.6175 317.928 30.414 316.842C30.1697 315.553 30.9194 315.258 31.7947 314.573H30.8889Z" fill="url(#paint3_radial_325_9734)"/>
<path d="M-42.4784 230.919C-52.4285 226.268 -62.6101 222.128 -72.983 218.516C-108.021 206.252 -144.883 200.01 -182.005 200.055C-192.922 200.055 -203.713 200.582 -214.379 201.636C-284.659 208.472 -350.864 237.775 -403.178 285.201C-352.154 241.857 -289.095 215.154 -222.46 208.675C-211.806 207.623 -201.014 207.096 -190.086 207.094C-152.965 207.051 -116.104 213.293 -81.0672 225.556C-70.693 229.168 -60.5104 233.309 -50.5591 237.962C61.9303 290.521 139.871 404.665 139.871 537.031C139.871 602.4 120.874 663.365 88.0553 714.631C72.0156 739.673 52.6794 762.442 30.5673 782.327C56.0533 760.85 78.1567 735.654 96.1327 707.588C128.934 656.322 147.949 595.357 147.949 529.988C147.949 397.623 70.0076 283.464 -42.4784 230.919Z" fill="url(#paint4_radial_325_9734)"/>
<path d="M3.02734 741.397C5.66326 737.978 8.3195 734.419 11.1488 731.152C12.4239 729.782 13.9869 728.711 15.7252 728.017C16.6377 727.637 17.6385 727.424 17.9404 728.696C18.2423 729.968 16.994 731.176 16.2612 732.014C14.3954 734.148 12.5872 736.112 10.2057 737.672C9.46957 738.151 8.73679 738.52 7.98367 738.914C7.23055 739.307 5.72771 739.67 5.22902 740.291L3.02734 741.397Z" fill="#3261D6"/>
<path d="M70.2324 557.413C70.723 559.89 71.4524 562.315 72.4104 564.652C74.4289 564.065 75.6671 560.065 75.7621 558.278C75.9117 556.105 75.7598 553.922 75.3109 551.791C74.9716 550.394 75.1039 545.583 73.4145 544.84C72.1118 544.27 71.9354 545.946 71.7488 546.777C71.0703 549.797 70.9889 553.189 70.7854 556.31L70.2324 557.413Z" fill="#438BF6"/>
<g style="mix-blend-mode:multiply" opacity="0.2">
<path d="M-52.099 439.628C-41.2433 437.728 -30.3875 435.665 -19.5589 433.521C-17.0993 433.047 -14.6004 432.806 -12.0956 432.802C-11.0779 432.802 -10.3791 433.04 -9.419 433.25C-8.32325 433.491 -7.22748 433.219 -6.1419 433.487C-4.25572 433.959 -2.52558 435.004 -0.714027 435.638C0.463142 436.052 1.51142 436.537 2.65127 437.016C4.17107 437.653 5.90119 437.809 7.5092 438.199C9.71428 438.735 11.6276 439.597 13.7377 440.357C15.5866 441.036 17.3811 441.317 19.1656 442.236C20.7702 443.061 22.4596 443.661 23.915 444.713C25.0073 445.497 26.1573 446.002 27.3074 446.711C28.2165 447.274 28.7933 448.156 29.6821 448.726C32.0093 450.229 35.5374 449.744 38.041 451.101C39.6456 451.963 40.626 453.611 42.3358 454.388C43.5435 454.934 44.4934 454.894 45.7825 454.931C47.1768 454.965 48.5575 455.369 49.9179 455.653C52.2926 456.156 54.5418 456.936 56.852 457.641C58.633 458.184 60.5192 458.374 62.2799 458.981C63.7459 459.549 65.1629 460.235 66.517 461.034C68.509 462.098 70.2508 463.575 71.626 465.366C71.8838 465.726 72.6132 466.258 72.1043 466.774C71.4258 467.452 71.0289 466.34 70.7168 466.017C68.3421 463.595 65.5434 462.36 62.2595 461.458C58.1569 460.351 53.9852 459.518 49.772 458.964C48.7543 458.825 47.7366 459.032 46.7188 458.876C45.6435 458.71 44.7207 458.12 43.6657 457.892C41.9695 457.533 40.3173 457.462 38.6822 456.804C37.254 456.23 36.1582 455.172 34.7707 454.534C33.2305 453.828 31.6157 453.106 30.2282 452.136C28.2106 450.772 26.1163 449.527 23.9557 448.404C21.2417 446.935 18.0563 444.984 15.0336 444.289C10.0807 443.149 5.95889 440.164 1.21289 438.467C-1.59943 437.45 -4.89348 437.918 -7.82793 437.918H-15.4202C-17.0485 437.918 -18.6803 437.942 -20.3087 437.918C-22.3441 437.891 -24.5322 438.691 -26.5371 439.197C-28.2334 439.621 -29.6921 439.984 -31.2492 440.771C-32.7555 441.527 -34.4415 441.66 -35.9579 442.467C-36.8637 442.945 -38.1358 443.393 -38.7295 444.218C-39.2175 445.021 -39.6135 445.877 -39.9101 446.769C-41.0499 449.944 -38.9398 452.621 -36.1988 453.957C-34.5026 454.778 -32.7826 455.43 -31.1101 456.213C-29.2104 457.095 -28.1451 458.025 -26.7712 459.545C-27.9925 459.507 -29.8244 458.656 -30.971 458.215C-32.5968 457.556 -34.3362 457.224 -36.0902 457.238C-39.4826 457.163 -43.713 455.267 -46.4439 453.374C-47.6565 452.527 -48.7546 451.527 -49.7108 450.399C-50.7929 449.157 -52.228 448.265 -53.2695 447.006C-54.0124 446.097 -54.7655 445.229 -54.9657 444.055C-55.2846 442.199 -54.277 441.687 -52.099 439.628Z" fill="#5A4862"/>
</g>
<g style="mix-blend-mode:multiply" opacity="0.2">
<path d="M63.9597 595.415C65.3167 591.49 67.0333 587.792 68.7837 584.03C69.4141 582.542 70.1783 581.115 71.0668 579.765C71.4061 579.25 71.9862 578.147 72.7122 578.123C72.8886 578.622 72.7834 579.389 72.7698 579.908C72.7224 581.194 72.529 582.471 72.1931 583.714C71.5859 585.967 71.0329 588.124 71.0499 590.455C71.0737 593.691 70.7785 596.9 70.7582 600.13C70.731 604.147 71.5859 608.133 71.6334 612.143C71.6605 614.443 71.786 616.831 71.5723 619.121C71.4671 620.213 71.2025 621.289 71.1075 622.381C71.016 623.422 71.0635 624.477 70.9888 625.519C70.8769 627.13 70.6971 628.779 70.4359 630.377C70.1611 632.043 69.5267 633.627 68.9873 635.218C68.4479 636.809 68.051 638.461 67.6303 640.12C67.2097 641.779 66.5312 643.411 66.1173 645.086C65.7752 646.384 65.5269 647.705 65.3744 649.039C65.3201 649.653 65.181 650.694 65.4151 651.291C66.1241 651.166 66.6533 649.435 66.9315 648.916C67.5659 647.756 68.4242 646.793 68.967 645.578C69.6895 643.997 70.5173 642.386 71.0397 640.727C71.8122 638.404 72.4466 636.038 72.9395 633.64C73.1328 632.623 73.35 631.585 73.5026 630.546C73.7537 628.85 74.3304 627.28 74.6493 625.6C75.1005 623.226 75.823 620.939 76.2539 618.554C76.5015 617.197 76.4744 615.749 76.6372 614.351C76.789 612.554 76.7366 610.746 76.4812 608.96C76.1419 605.907 76.3387 602.579 76.4032 599.502C76.4744 596.046 77.7601 592.955 78.9 589.742C81.5834 582.082 82.445 573.798 86.058 566.447C86.2887 565.978 88.8126 560.717 89.7116 561.667C89.8439 561.809 89.7116 562.077 89.7455 562.24C89.8032 562.712 89.9525 563.149 90.0136 563.617C90.0859 564.655 90.0939 565.696 90.0373 566.735C90.0373 568.282 89.559 571.054 90.6751 572.366C91.3535 573.167 92.3238 572.027 92.9039 571.508C93.7452 570.772 94.8613 570.243 95.7773 569.578C96.2963 569.201 96.8764 568.954 97.409 568.604C98.0095 568.211 98.5217 567.685 99.1052 567.288C99.6887 566.891 100.235 566.694 100.801 566.386C101.368 566.077 102.046 565.49 102.749 565.368C103.332 565.253 104.194 565.236 104.713 565.585C105.232 565.934 105.812 567.095 106.036 567.637C106.324 568.34 106.243 569.401 106.209 570.151C106.09 572.607 104.092 574.616 102.796 576.536C101.137 578.995 99.4648 581.428 98.5149 584.274C98.0695 585.539 97.7369 586.841 97.521 588.165C97.2801 589.803 97.3921 591.473 97.3921 593.125C97.3921 598.247 97.6872 603.343 97.6668 608.465C97.6255 610.923 97.7388 613.38 98.0061 615.823C98.1087 616.763 98.2765 617.695 98.5082 618.612C98.654 619.162 98.9356 620.447 99.302 620.953C100.116 622.079 100.221 619.792 100.218 619.29C100.231 616.817 100.49 614.351 100.991 611.929C101.117 611.277 102.284 607.97 103.285 608.228C103.481 608.279 103.78 608.906 103.892 609.035C104.338 609.527 104.72 610.073 105.028 610.66C105.88 612.268 106.725 613.74 107.091 615.545C107.376 616.96 107.831 618.225 108.021 619.67C108.234 621.295 108.594 622.873 108.872 624.484C109.143 626.024 109.551 627.877 111.203 628.426C113.367 629.139 114.758 626.255 115.463 624.617C116.108 623.12 116.844 621.635 117.265 620.057C117.74 618.29 118.004 616.448 118.384 614.656C118.858 612.343 119.133 609.994 119.205 607.634C119.297 605.32 119.545 602.949 119.514 600.639C119.47 596.853 120.128 593.135 120.579 589.396C120.796 587.605 121.214 585.858 121.438 584.07C121.706 581.936 121.899 579.728 122.337 577.625C123.103 573.93 123.646 570.202 124.345 566.491C124.732 564.425 124.837 562.274 125.057 560.181C125.319 557.698 125.091 555.214 125.213 552.717C125.424 548.494 125.743 544.291 125.756 540.06C125.756 535.989 125.369 531.891 124.983 527.848C124.788 525.785 124.599 523.722 124.416 521.66C124.226 519.56 123.795 517.521 123.548 515.431C122.951 510.343 122.048 505.125 122.048 499.979C122.048 495.82 122.934 491.715 122.934 487.549C122.934 485.276 122.767 483.02 122.594 480.764C122.323 477.426 121.454 474.441 120.382 471.293C118.761 466.543 116.396 462.106 114.687 457.384C113.123 453.068 112.231 448.54 110.731 444.197C109.754 441.378 107.99 438.953 106.189 436.588C105.5 435.635 104.713 434.757 103.841 433.969C102.759 433.046 101.968 431.886 101.08 430.784C99.5225 428.853 98.2164 426.713 96.5338 424.884C96.2963 424.626 93.9318 421.689 93.4161 422.781C93.2703 423.093 93.9114 423.853 94.0505 424.104C94.4338 424.782 94.902 425.352 95.3362 426.007C97.0053 428.528 97.8025 431.737 99.017 434.488C100.092 436.924 101.802 438.976 102.959 441.378C103.475 442.45 103.956 443.539 104.479 444.611C105.157 445.968 105.693 447.39 106.358 448.74C106.932 449.865 107.443 451.021 107.888 452.203C108.326 453.401 108.635 454.629 109.025 455.84C109.869 458.462 111.06 460.929 111.871 463.544C113.547 469.091 113.832 474.994 114.843 480.679C116.22 488.448 115.338 496.532 114.765 504.342C114.453 508.589 114.911 512.653 115.667 516.812C116.21 519.78 116.488 523.231 115.966 526.223C115.653 528.014 114.982 529.713 114.765 531.528C114.578 533.062 114.195 534.51 113.91 536.023C113.682 537.12 113.377 538.199 112.997 539.253C112.566 540.535 112.258 542.021 111.528 543.175C110.768 544.382 108.987 546.228 107.457 545.621C106.657 545.281 106.494 544.844 105.849 544.352C105.032 543.724 104.153 543.405 103.383 542.656C102.44 541.716 101.117 540.423 100.479 539.229C99.665 537.703 99.2342 535.945 98.5285 534.358C97.8093 532.719 96.9773 531.132 96.0385 529.608C94.9801 527.912 93.7689 526.284 92.836 524.52C91.3801 521.867 90.1106 519.116 89.0365 516.286C88.1206 513.725 87.4115 510.774 85.3286 508.891C84.2261 507.897 82.5333 506.811 81.1865 508.06C79.6361 509.491 80.6301 512.371 80.8472 514.102C81.2577 517.307 81.9735 520.456 82.3466 523.675C82.8148 527.712 82.6282 531.796 82.6282 535.857C82.6282 539.104 82.8623 542.445 82.4213 545.668C82.2279 547.086 82.1974 548.623 81.8073 550C81.3866 551.476 80.6369 552.789 80.4164 554.332C80.145 556.242 80.4435 558.213 80.2196 560.137C79.9957 562.06 79.9584 564.13 78.4623 565.588C76.8962 567.05 75.2542 568.428 73.5433 569.717C72.5731 570.484 71.6843 571.359 70.7107 572.129C69.3911 573.115 68.2319 574.3 67.2741 575.64C66.7005 576.413 66.2062 577.241 65.7984 578.113C65.371 579.131 65.2522 580.328 64.9673 581.417C64.2277 584.237 63.0743 587.147 63.1082 590.105C63.1082 591.405 63.0166 592.684 63.3287 593.939C63.4305 594.359 63.5594 594.726 63.6883 595.136C63.7528 595.357 64.0445 596.035 63.9597 595.415Z" fill="#5A4862"/>
</g>
<path d="M66.733 361.578C66.4497 359.483 65.6895 357.481 64.5109 355.726C64.3389 355.434 64.1078 355.181 63.8324 354.983C63.2727 354.644 62.5331 354.756 61.9462 355.051C61.244 355.444 60.6751 356.037 60.3124 356.755C59.9498 357.473 59.8099 358.283 59.9108 359.081C60.0313 359.875 60.3407 360.629 60.813 361.278C61.2853 361.927 61.9066 362.454 62.6247 362.813C63.3976 363.26 64.3164 363.382 65.1792 363.152C66.0172 362.874 66.6855 361.995 66.5125 361.117C66.4499 361.089 66.3813 361.077 66.3131 361.083C66.2449 361.089 66.1791 361.111 66.1218 361.148C66.0645 361.186 66.0175 361.237 65.985 361.297C65.9525 361.357 65.9355 361.425 65.9357 361.493L66.733 361.578Z" fill="#43DFF6"/>
<path d="M39.5676 378.113C39.5504 377.956 39.4811 377.809 39.3709 377.696C39.2435 377.611 39.0931 377.567 38.94 377.57C38.527 377.533 38.1182 377.458 37.7188 377.346L38.8891 379.042C38.9239 379.085 38.9493 379.135 38.9637 379.188C39.0011 379.375 38.7839 379.528 38.7127 379.687C38.6075 379.948 38.8416 380.216 39.0757 380.365C40.7414 381.471 39.7474 378.937 39.5676 378.113Z" fill="#43DFF6"/>
<path d="M82.7562 389.369C82.7053 389.172 82.651 388.979 82.5967 388.782C82.4019 388.839 82.2295 388.955 82.1037 389.114C81.9779 389.274 81.9047 389.468 81.8945 389.671C81.9149 390.075 82.4441 390.397 82.7562 390.142C82.9496 389.983 83.1904 389.654 83.3465 389.851L82.7562 389.369Z" fill="#43DFF6"/>
<path d="M96.6682 563.387C96.5563 563.587 96.7971 563.824 97.0278 563.838C97.2556 563.816 97.482 563.782 97.7063 563.736C97.8248 563.732 97.9428 563.754 98.0522 563.799C98.1617 563.845 98.2601 563.914 98.3407 564.001C98.391 564.047 98.4284 564.106 98.4492 564.172C98.4701 564.237 98.4736 564.307 98.4594 564.374C98.4222 564.46 98.361 564.533 98.283 564.584C97.9465 564.889 97.5319 565.095 97.0855 565.178C96.8619 565.215 96.6321 565.186 96.4247 565.095C96.2173 565.003 96.0413 564.853 95.9185 564.662C95.8437 564.523 95.8074 564.366 95.8131 564.208C95.8188 564.05 95.8663 563.897 95.9509 563.763C96.0354 563.63 96.1539 563.521 96.2943 563.448C96.4346 563.375 96.5918 563.341 96.7496 563.349L96.6682 563.387Z" fill="#43DFF6"/>
<path d="M15.9227 352.134C15.8108 352.334 16.0516 352.568 16.2823 352.581C16.5102 352.562 16.7368 352.529 16.9608 352.483C17.0791 352.478 17.197 352.499 17.3065 352.545C17.4159 352.59 17.5144 352.658 17.5952 352.744C17.6458 352.791 17.6834 352.851 17.7042 352.917C17.725 352.983 17.7284 353.053 17.7139 353.121C17.6759 353.204 17.6162 353.276 17.5409 353.328C17.2027 353.632 16.7872 353.837 16.34 353.921C16.1164 353.959 15.8866 353.93 15.6792 353.838C15.4718 353.747 15.2958 353.596 15.173 353.406C15.098 353.267 15.0614 353.11 15.067 352.952C15.0726 352.794 15.1202 352.641 15.2048 352.507C15.2895 352.374 15.4082 352.266 15.5487 352.193C15.6892 352.121 15.8464 352.088 16.0041 352.096L15.9227 352.134Z" fill="#43DFF6"/>
<path d="M52.9297 352.307C54.1645 350.594 54.9907 348.621 55.3451 346.54C55.4173 346.204 55.4173 345.857 55.3451 345.522C55.1789 344.887 54.5614 344.463 53.9338 344.273C53.1534 344.07 52.33 344.105 51.5696 344.374C50.8091 344.642 50.1462 345.132 49.6662 345.78C49.206 346.441 48.9115 347.204 48.8076 348.004C48.7037 348.803 48.7934 349.616 49.0691 350.373C49.3279 351.227 49.913 351.945 50.6975 352.371C51.4947 352.744 52.5837 352.568 53.0722 351.822C53.0465 351.758 53.0049 351.701 52.9515 351.658C52.898 351.614 52.8345 351.585 52.7667 351.573C52.6989 351.561 52.6291 351.566 52.5639 351.588C52.4986 351.61 52.4401 351.649 52.3937 351.699L52.9297 352.307Z" fill="#43DFF6"/>
<path d="M125.087 541.604C126.325 539.892 127.152 537.919 127.506 535.837C127.576 535.501 127.576 535.155 127.506 534.819C127.34 534.185 126.722 533.761 126.091 533.571C125.311 533.368 124.488 533.404 123.728 533.673C122.968 533.942 122.306 534.432 121.827 535.08C121.365 535.741 121.07 536.503 120.966 537.302C120.862 538.101 120.952 538.914 121.23 539.67C121.487 540.525 122.071 541.244 122.855 541.672C123.655 542.045 124.744 541.868 125.229 541.122C125.203 541.059 125.161 541.004 125.107 540.961C125.054 540.918 124.991 540.89 124.924 540.877C124.857 540.865 124.787 540.869 124.722 540.89C124.657 540.911 124.598 540.947 124.551 540.997L125.087 541.604Z" fill="#43DFF6"/>
<path d="M4.11587 302.031C4.25563 301.787 4.3375 301.514 4.35514 301.234C4.37279 300.953 4.32576 300.672 4.21766 300.413C3.97069 300.478 3.73977 300.594 3.53917 300.752C3.4397 300.831 3.36571 300.937 3.32648 301.058C3.28726 301.179 3.28453 301.308 3.31866 301.431C3.43739 301.77 3.8411 301.848 4.18035 301.892L3.95643 302.065L4.11587 302.031Z" fill="#43DFF6"/>
<path d="M1.21234 299.208C1.24056 299.053 1.2167 298.892 1.14447 298.751C1.04484 298.635 0.912326 298.552 0.764516 298.513C0.37734 298.361 0.00396091 298.176 -0.351562 297.96C-0.125401 298.614 0.0928217 299.27 0.303152 299.928C0.323341 299.978 0.33369 300.033 0.333672 300.087C0.333672 300.277 0.0690648 300.348 -0.0462776 300.498C-0.219291 300.718 -0.0699931 301.044 0.113198 301.254C1.4091 302.774 1.15467 300.063 1.21234 299.208Z" fill="#43DFF6"/>
<path d="M2.04637 308.521C2.12138 308.674 2.14742 308.847 2.121 309.016C1.70712 308.877 1.50359 308.419 1.37468 307.998C1.30344 307.764 1.25594 307.469 1.4493 307.32C1.58161 307.215 1.78856 307.235 1.93444 307.184C2.25672 307.082 2.54506 306.689 2.84698 306.845C2.92702 306.898 2.98642 306.978 3.0154 307.07C3.04438 307.161 3.04121 307.26 3.00641 307.35C2.93114 307.527 2.81483 307.683 2.66717 307.805L1.76482 308.68L2.04637 308.521Z" fill="#43DFF6"/>
<path d="M7.01727 304.426C7.17587 304.285 7.30015 304.11 7.3807 303.913C7.46124 303.717 7.49591 303.505 7.48203 303.293L6.4643 303.456C6.30048 303.466 6.1424 303.52 6.00634 303.612C5.95074 303.668 5.90759 303.734 5.87974 303.808C5.8519 303.882 5.83998 303.96 5.84479 304.039C5.8496 304.117 5.87104 304.194 5.90765 304.264C5.94427 304.333 5.99521 304.394 6.05719 304.443C6.18822 304.535 6.34466 304.585 6.50501 304.585C6.66536 304.585 6.82176 304.535 6.95279 304.443L7.01727 304.426Z" fill="#43DFF6"/>
<path d="M1.68044 303.48C1.57188 303.68 1.81272 303.917 2.04001 303.931C2.2678 303.909 2.49427 303.875 2.71849 303.829C2.83702 303.825 2.955 303.847 3.06445 303.892C3.1739 303.938 3.27226 304.007 3.35288 304.094C3.40292 304.14 3.4399 304.199 3.46013 304.265C3.48036 304.33 3.48312 304.4 3.46821 304.467C3.43248 304.552 3.37233 304.626 3.29523 304.677C2.95871 304.982 2.54413 305.188 2.0977 305.271C1.87407 305.308 1.64434 305.279 1.43694 305.188C1.22953 305.096 1.05353 304.946 0.930681 304.755C0.855849 304.616 0.819296 304.46 0.824751 304.303C0.830206 304.145 0.877489 303.992 0.96174 303.858C1.04599 303.725 1.16416 303.617 1.30417 303.544C1.44418 303.472 1.60098 303.438 1.75845 303.446L1.68044 303.48Z" fill="#43DFF6"/>
<path d="M5.8679 299.035C5.96066 298.927 6.00754 298.787 5.99868 298.644C5.98982 298.502 5.92589 298.368 5.8204 298.272C5.70968 298.181 5.57662 298.122 5.43515 298.101C5.29369 298.079 5.14904 298.096 5.0164 298.15C4.89767 298.194 4.77214 298.292 4.79589 298.418C4.80984 298.459 4.83215 298.496 4.86136 298.528C4.89057 298.559 4.92604 298.584 4.96551 298.601L5.8713 299.144L5.8679 299.035Z" fill="#43DFF6"/>
<path d="M0.265796 313.776C0.148108 313.857 0.0133182 313.909 -0.128109 313.93C-0.269537 313.95 -0.413812 313.938 -0.549677 313.894C-0.685542 313.849 -0.809335 313.774 -0.911489 313.674C-1.01364 313.575 -1.09139 313.452 -1.13867 313.318C-0.769638 313.055 -0.332464 312.906 0.119904 312.887C0.567704 312.914 1.02232 313.324 0.91376 313.762L0.272588 314.22L0.265796 313.776Z" fill="#43DFF6"/>
<path d="M67.0969 342.713C67.411 342.195 67.5885 341.606 67.6128 341.001C67.6372 340.396 67.5075 339.794 67.236 339.253C66.0317 339.219 64.7459 339.633 64.0437 340.61C63.3415 341.587 63.4738 343.171 64.5085 343.788C65.5432 344.406 67.1783 343.449 66.9137 342.265L67.0969 342.713Z" fill="#43DFF6"/>
<path d="M28.9565 325.286C28.9832 325.13 28.9582 324.969 28.8853 324.828C28.7864 324.713 28.6552 324.63 28.5087 324.591C28.1212 324.439 27.7478 324.254 27.3926 324.038L28.0439 326.005C28.0658 326.055 28.0762 326.11 28.0745 326.165C28.0745 326.358 27.8132 326.426 27.6945 326.575C27.5249 326.799 27.6741 327.121 27.8539 327.335C29.1532 328.851 28.8988 326.141 28.9565 325.286Z" fill="#43DFF6"/>
<path d="M23.7486 337.319C23.8741 336.98 23.3483 336.732 23.0701 336.929C22.9408 337.048 22.8375 337.193 22.7663 337.354C22.6951 337.515 22.6576 337.689 22.6562 337.865C22.8925 337.928 23.1421 337.919 23.3734 337.84C23.6047 337.761 23.8073 337.615 23.9555 337.421L23.7486 337.319Z" fill="#43DFF6"/>
<path d="M24.6517 329.845C24.6065 329.915 24.5355 329.965 24.4541 329.982C24.3728 330 24.2877 329.985 24.2174 329.94C24.1493 329.893 24.0917 329.832 24.0485 329.762C24.0052 329.691 23.9773 329.612 23.9664 329.53C23.9409 329.435 23.9409 329.336 23.9664 329.242C23.9865 329.19 24.0168 329.142 24.0556 329.102C24.0944 329.063 24.1409 329.031 24.1922 329.009C24.2435 328.988 24.2986 328.977 24.3542 328.977C24.4098 328.977 24.4649 328.989 24.516 329.011C24.6159 329.063 24.6923 329.151 24.7301 329.258C24.7678 329.364 24.764 329.481 24.7195 329.584C24.6674 329.684 24.582 329.763 24.4779 329.807C24.3739 329.851 24.2578 329.858 24.1496 329.825L24.6517 329.845Z" fill="#43DFF6"/>
<path d="M1.19854 325.798C1.15276 325.867 1.0818 325.916 1.00072 325.934C0.919639 325.952 0.834811 325.937 0.764304 325.893C0.696128 325.846 0.638581 325.785 0.595345 325.715C0.552109 325.644 0.524145 325.565 0.513268 325.483C0.487765 325.388 0.487765 325.289 0.513268 325.194C0.534102 325.143 0.565028 325.096 0.604207 325.056C0.643386 325.016 0.690034 324.985 0.741486 324.963C0.792938 324.942 0.848152 324.931 0.903902 324.931C0.959651 324.931 1.01483 324.942 1.06623 324.964C1.16692 325.014 1.24512 325.1 1.28534 325.205C1.32556 325.31 1.32487 325.426 1.28335 325.53C1.23125 325.63 1.1458 325.709 1.04176 325.753C0.937718 325.797 0.82159 325.804 0.713409 325.771L1.19854 325.798Z" fill="#43DFF6"/>
<path d="M26.8807 329.815C26.9664 329.826 27.0534 329.814 27.1331 329.781C27.2127 329.747 27.2822 329.693 27.3345 329.625C27.3867 329.556 27.42 329.475 27.4308 329.389C27.4417 329.303 27.4298 329.216 27.3963 329.136C27.216 329.099 27.0286 329.119 26.8604 329.194C26.7773 329.234 26.7099 329.3 26.6687 329.382C26.6275 329.465 26.615 329.558 26.633 329.649C26.6463 329.692 26.6696 329.73 26.7011 329.762C26.7326 329.794 26.7713 329.818 26.8139 329.831C26.8565 329.845 26.9018 329.848 26.9459 329.841C26.9901 329.833 27.0317 329.815 27.0673 329.788L26.8807 329.815Z" fill="#43DFF6"/>
<path d="M21.4452 333.604C21.3839 333.711 21.2927 333.797 21.1828 333.853C21.0729 333.908 20.9492 333.93 20.827 333.915C20.7048 333.901 20.5896 333.851 20.4956 333.771C20.4017 333.692 20.3331 333.587 20.2985 333.469C20.251 333.306 20.2985 333.085 20.4783 333.065C20.5483 333.064 20.6172 333.082 20.6785 333.116L21.5198 333.513L21.4282 333.645L21.4452 333.604Z" fill="#43DFF6"/>
<path d="M18.1002 328.875C17.805 328.95 17.7066 329.316 17.6795 329.618C17.6524 329.92 17.6083 330.297 17.3403 330.422C17.3047 330.443 17.2647 330.456 17.2235 330.458C17.1823 330.461 17.141 330.455 17.1028 330.439C16.9128 330.337 17.0146 330.056 17.0214 329.842C17.0035 329.672 16.9671 329.505 16.9128 329.343C16.8743 329.143 16.897 328.935 16.9781 328.748C17.0592 328.56 17.1948 328.401 17.3674 328.292C17.4769 328.284 17.5864 328.308 17.6823 328.362C17.7782 328.415 17.8564 328.495 17.9072 328.593C17.958 328.69 17.9793 328.8 17.9684 328.909C17.9574 329.019 17.9148 329.122 17.8457 329.208L18.1002 328.875Z" fill="#43DFF6"/>
<path d="M15.7401 326.949L15.4377 326.765C15.3564 326.817 15.295 326.895 15.2636 326.986C15.2321 327.078 15.2325 327.177 15.2645 327.268C15.2819 327.313 15.3086 327.354 15.343 327.388C15.3774 327.422 15.4187 327.448 15.464 327.465C15.5093 327.481 15.5577 327.488 15.6059 327.485C15.6541 327.481 15.701 327.468 15.7435 327.444C15.7837 327.419 15.8175 327.385 15.8421 327.345C15.8667 327.304 15.8814 327.258 15.8851 327.211C15.8887 327.164 15.8812 327.116 15.863 327.072C15.8449 327.029 15.8168 326.99 15.7808 326.959L15.7401 326.949Z" fill="#43DFF6"/>
<path d="M8.66707 331.138L8.36815 330.955C8.28635 331.006 8.22459 331.084 8.19309 331.176C8.16159 331.267 8.16223 331.366 8.19491 331.457C8.21226 331.503 8.23904 331.543 8.27344 331.577C8.30785 331.611 8.34907 331.637 8.3944 331.654C8.43973 331.671 8.4881 331.678 8.53629 331.674C8.58448 331.671 8.6314 331.657 8.67387 331.634C8.7139 331.609 8.7474 331.574 8.77169 331.534C8.79597 331.493 8.81034 331.447 8.81365 331.4C8.81695 331.353 8.8091 331.305 8.79072 331.261C8.77234 331.218 8.74394 331.179 8.70783 331.148L8.66707 331.138Z" fill="#43DFF6"/>
<path d="M29.4422 329.564C29.3336 329.767 29.5745 330.002 29.8018 330.015C30.0295 329.993 30.2559 329.959 30.4803 329.913C30.5986 329.911 30.7161 329.933 30.8253 329.979C30.9345 330.024 31.0331 330.092 31.1146 330.178C31.1647 330.225 31.2016 330.284 31.2219 330.349C31.2421 330.415 31.2449 330.484 31.23 330.551C31.1942 330.637 31.1341 330.71 31.0569 330.761C30.7204 331.066 30.3059 331.272 29.8594 331.355C29.6358 331.393 29.4061 331.364 29.1987 331.272C28.9913 331.18 28.8153 331.03 28.6924 330.839C28.6176 330.701 28.581 330.544 28.5865 330.387C28.5919 330.229 28.6392 330.076 28.7235 329.943C28.8077 329.809 28.9259 329.701 29.0659 329.628C29.2059 329.556 29.3627 329.522 29.5202 329.53L29.4422 329.564Z" fill="#43DFF6"/>
<path d="M15.3157 331.857C15.3327 331.886 15.3438 331.917 15.348 331.95C15.3523 331.983 15.3497 332.017 15.3405 332.048C15.3313 332.08 15.3156 332.11 15.2944 332.135C15.2732 332.161 15.2469 332.182 15.2173 332.197C15.0973 332.253 14.9612 332.263 14.8339 332.227C14.7278 332.212 14.6267 332.173 14.5388 332.112C14.459 332.042 14.4049 331.948 14.3852 331.844C14.3655 331.74 14.3814 331.632 14.4302 331.538C14.4831 331.447 14.5593 331.371 14.6511 331.318C14.7429 331.266 14.847 331.239 14.9527 331.24C15.0046 331.237 15.0565 331.245 15.1054 331.262C15.1543 331.279 15.1993 331.307 15.2376 331.342C15.2718 331.381 15.2906 331.431 15.2906 331.482C15.2906 331.534 15.2718 331.584 15.2376 331.623L15.3157 331.857Z" fill="#43DFF6"/>
<path d="M25.4793 326.918C25.4793 326.796 25.4556 326.674 25.4454 326.551C25.2561 326.525 25.0636 326.567 24.9026 326.67C24.7602 326.792 24.7737 327.084 24.9603 327.121C25.0311 327.13 25.1029 327.118 25.1673 327.087L25.8016 326.847L25.4793 326.918Z" fill="#43DFF6"/>
<path d="M78.1946 538.649C78.5086 538.131 78.6862 537.542 78.7105 536.937C78.7348 536.332 78.6052 535.73 78.3337 535.189C77.1293 535.152 75.8436 535.565 75.1414 536.546C74.4391 537.526 74.5714 539.107 75.6061 539.724C76.6408 540.342 78.276 539.385 78.0114 538.201L78.1946 538.649Z" fill="#43DFF6"/>
<path d="M91.8004 567.858C92.114 567.34 92.2909 566.75 92.3147 566.145C92.3384 565.54 92.2081 564.939 91.9361 564.398C90.7352 564.36 89.4461 564.778 88.7439 565.755C88.0416 566.732 88.1773 568.316 89.2086 568.933C90.2399 569.551 91.8785 568.594 91.6172 567.41L91.8004 567.858Z" fill="#43DFF6"/>
<path d="M80.4428 518.81C80.47 518.654 80.445 518.493 80.3716 518.352C80.2727 518.237 80.1415 518.154 79.995 518.115C79.6074 517.962 79.234 517.776 78.8789 517.558L79.5303 519.529C79.5521 519.58 79.5625 519.634 79.5608 519.689C79.5608 519.879 79.2996 519.947 79.1808 520.099C79.0112 520.32 79.1605 520.645 79.3403 520.856C80.6396 522.372 80.3851 519.665 80.4428 518.81Z" fill="#43DFF6"/>
<path d="M95.3502 590.56C95.4757 590.221 94.9499 589.973 94.6717 590.17C94.5416 590.289 94.4376 590.433 94.3664 590.595C94.2951 590.756 94.2582 590.93 94.2578 591.106C94.4941 591.168 94.7434 591.159 94.9745 591.08C95.2056 591.001 95.4082 590.855 95.5571 590.662L95.3502 590.56Z" fill="#43DFF6"/>
<path d="M76.138 523.37C76.0892 523.435 76.0184 523.481 75.9386 523.498C75.8588 523.516 75.7755 523.504 75.7038 523.465C75.6356 523.417 75.578 523.357 75.5348 523.286C75.4916 523.215 75.4636 523.136 75.4527 523.054C75.4272 522.96 75.4272 522.86 75.4527 522.766C75.4728 522.714 75.5032 522.667 75.542 522.627C75.5808 522.587 75.6272 522.555 75.6785 522.534C75.7298 522.512 75.7849 522.501 75.8405 522.501C75.8962 522.502 75.9512 522.513 76.0023 522.535C76.1022 522.587 76.1787 522.676 76.2164 522.782C76.2541 522.888 76.2503 523.005 76.2058 523.108C76.1537 523.208 76.0681 523.287 75.9639 523.33C75.8597 523.374 75.7437 523.379 75.6359 523.346L76.138 523.37Z" fill="#43DFF6"/>
<path d="M80.6673 425.04C80.6221 425.11 80.5511 425.159 80.4698 425.177C80.3884 425.195 80.3033 425.18 80.2331 425.135C80.1649 425.088 80.1073 425.027 80.0641 424.956C80.0209 424.886 79.9929 424.807 79.982 424.725C79.9565 424.63 79.9565 424.531 79.982 424.436C80.0029 424.385 80.0338 424.338 80.073 424.298C80.1121 424.258 80.1588 424.227 80.2102 424.205C80.2617 424.184 80.3169 424.173 80.3727 424.173C80.4284 424.173 80.4836 424.184 80.535 424.206C80.6343 424.259 80.71 424.347 80.7471 424.453C80.7842 424.559 80.7799 424.676 80.7351 424.779C80.683 424.879 80.5976 424.958 80.4936 425.002C80.3895 425.046 80.2734 425.052 80.1652 425.02L80.6673 425.04Z" fill="#43DFF6"/>
<path d="M78.367 523.336C78.4527 523.347 78.5398 523.335 78.6194 523.301C78.6991 523.268 78.7685 523.214 78.8208 523.145C78.8731 523.077 78.9063 522.995 78.9172 522.91C78.928 522.824 78.9161 522.737 78.8827 522.657C78.7026 522.616 78.514 522.637 78.3467 522.715C78.2636 522.755 78.1962 522.821 78.155 522.903C78.1139 522.986 78.1013 523.079 78.1194 523.169C78.1332 523.212 78.157 523.25 78.1885 523.281C78.2201 523.313 78.2586 523.336 78.301 523.35C78.3434 523.363 78.3884 523.367 78.4323 523.36C78.4762 523.352 78.5178 523.335 78.5536 523.309L78.367 523.336Z" fill="#43DFF6"/>
<path d="M72.9315 527.128C72.87 527.235 72.7785 527.321 72.6684 527.376C72.5583 527.431 72.4344 527.453 72.3122 527.438C72.19 527.423 72.0748 527.373 71.9811 527.293C71.8873 527.213 71.819 527.108 71.7848 526.989C71.7373 526.83 71.7849 526.609 71.9647 526.589C72.035 526.585 72.105 526.602 72.1648 526.64L73.0061 527.033L72.9145 527.169L72.9315 527.128Z" fill="#43DFF6"/>
<path d="M97.5709 428.117C97.2757 428.192 97.1773 428.558 97.1502 428.86C97.1231 429.162 97.079 429.539 96.811 429.664C96.7743 429.683 96.7336 429.693 96.6922 429.693C96.6509 429.693 96.6102 429.683 96.5735 429.664C96.3835 429.566 96.4853 429.281 96.4921 429.067C96.4742 428.897 96.4378 428.73 96.3835 428.568C96.345 428.368 96.3677 428.16 96.4488 427.972C96.5299 427.785 96.6655 427.626 96.8381 427.517C96.9477 427.509 97.0571 427.533 97.153 427.587C97.2489 427.64 97.3271 427.72 97.3779 427.818C97.4287 427.915 97.45 428.025 97.4391 428.134C97.4281 428.244 97.3855 428.347 97.3164 428.433L97.5709 428.117Z" fill="#43DFF6"/>
<path d="M95.2098 426.194L94.9075 426.007C94.8254 426.059 94.7635 426.138 94.732 426.23C94.7006 426.322 94.7013 426.422 94.7342 426.513C94.7536 426.557 94.7815 426.596 94.8163 426.628C94.851 426.661 94.8919 426.686 94.9365 426.702C94.9811 426.719 95.0286 426.726 95.0761 426.724C95.1236 426.722 95.1703 426.71 95.2132 426.69C95.2535 426.665 95.2873 426.631 95.3118 426.59C95.3364 426.549 95.3512 426.504 95.3548 426.456C95.3584 426.409 95.3509 426.362 95.3328 426.318C95.3147 426.274 95.2865 426.235 95.2506 426.204L95.2098 426.194Z" fill="#43DFF6"/>
<path d="M88.13 430.38L87.831 430.197C87.7492 430.248 87.6875 430.326 87.656 430.418C87.6245 430.509 87.6251 430.608 87.6578 430.699C87.6751 430.744 87.7019 430.785 87.7363 430.819C87.7707 430.853 87.812 430.879 87.8573 430.896C87.9026 430.913 87.951 430.92 87.9992 430.916C88.0474 430.913 88.0943 430.899 88.1368 430.876C88.1768 430.851 88.2103 430.816 88.2346 430.776C88.2589 430.735 88.2732 430.689 88.2765 430.642C88.2798 430.594 88.272 430.547 88.2536 430.503C88.2352 430.46 88.2068 430.421 88.1707 430.39L88.13 430.38Z" fill="#43DFF6"/>
<path d="M84.1296 593.23C84.0211 593.433 84.2619 593.667 84.4892 593.681C84.7165 593.695 84.9404 593.589 85.1677 593.583C85.286 593.578 85.4039 593.599 85.5134 593.644C85.6228 593.689 85.7213 593.757 85.8021 593.844C85.8517 593.891 85.8885 593.95 85.9093 594.015C85.93 594.08 85.934 594.15 85.9208 594.217C85.8825 594.302 85.8215 594.375 85.7444 594.427C85.4079 594.732 84.9933 594.938 84.5469 595.021C84.3232 595.058 84.0936 595.03 83.8862 594.938C83.6788 594.846 83.5028 594.696 83.3799 594.505C83.3051 594.367 83.2685 594.21 83.274 594.053C83.2794 593.895 83.3267 593.742 83.411 593.609C83.4952 593.475 83.6134 593.367 83.7534 593.294C83.8934 593.222 84.0502 593.188 84.2076 593.196L84.1296 593.23Z" fill="#43DFF6"/>
<path d="M94.7864 431.103C94.804 431.131 94.8154 431.163 94.8199 431.196C94.8245 431.229 94.8221 431.262 94.8128 431.294C94.8035 431.326 94.7876 431.356 94.7661 431.381C94.7446 431.407 94.718 431.427 94.688 431.442C94.5685 431.499 94.4323 431.511 94.3046 431.476C94.1982 431.46 94.0971 431.419 94.0095 431.357C93.9297 431.287 93.8756 431.193 93.8559 431.089C93.8362 430.985 93.8521 430.878 93.9009 430.784C93.9541 430.692 94.0308 430.615 94.1233 430.563C94.2157 430.51 94.3205 430.484 94.4268 430.485C94.4784 430.482 94.5301 430.49 94.5785 430.508C94.627 430.527 94.6711 430.554 94.7083 430.59C94.7429 430.628 94.7621 430.678 94.7621 430.729C94.7621 430.781 94.7429 430.83 94.7083 430.868L94.7864 431.103Z" fill="#43DFF6"/>
<path d="M102.464 405.459C102.481 405.487 102.492 405.519 102.497 405.552C102.502 405.584 102.499 405.618 102.49 405.649C102.481 405.681 102.466 405.711 102.445 405.737C102.424 405.762 102.398 405.783 102.369 405.798C102.249 405.853 102.113 405.863 101.986 405.829C101.879 405.814 101.777 405.774 101.687 405.714C101.608 405.643 101.554 405.548 101.535 405.443C101.516 405.339 101.533 405.231 101.582 405.137C101.635 405.046 101.711 404.97 101.803 404.918C101.895 404.867 101.999 404.84 102.104 404.842C102.156 404.839 102.207 404.846 102.256 404.864C102.304 404.881 102.348 404.908 102.386 404.943C102.421 404.982 102.44 405.031 102.44 405.083C102.44 405.134 102.421 405.184 102.386 405.222L102.464 405.459Z" fill="#43DFF6"/>
<path d="M76.9657 520.442C76.9657 520.32 76.9419 520.198 76.9318 520.076C76.7423 520.046 76.5486 520.088 76.389 520.194C76.2465 520.316 76.2601 520.608 76.4467 520.646C76.5178 520.653 76.5896 520.64 76.6536 520.608L77.288 520.371L76.9657 520.442Z" fill="#43DFF6"/>
<path d="M10.803 298.605C10.9133 298.324 10.9664 298.024 10.9591 297.723C10.9518 297.572 10.8994 297.426 10.8087 297.305C10.718 297.184 10.5931 297.093 10.4502 297.044C10.3042 297.012 10.1515 297.028 10.016 297.092C9.91328 297.138 9.82119 297.206 9.74531 297.289C9.66942 297.373 9.61135 297.471 9.57461 297.577C9.53787 297.684 9.52322 297.797 9.53158 297.91C9.53995 298.022 9.57115 298.132 9.62327 298.232C9.67538 298.332 9.74732 298.42 9.83471 298.492C9.92211 298.563 10.0231 298.616 10.1316 298.647C10.2401 298.678 10.3538 298.687 10.4657 298.672C10.5776 298.658 10.6855 298.621 10.7827 298.564L10.803 298.605Z" fill="#43DFF6"/>
<path d="M57.6799 378.747C57.9939 378.229 58.1714 377.639 58.1958 377.033C58.2201 376.428 58.0905 375.826 57.819 375.284C56.6147 375.25 55.3289 375.663 54.6267 376.641C53.9245 377.618 54.0601 379.202 55.0914 379.819C56.1227 380.437 57.7613 379.48 57.4967 378.299L57.6799 378.747Z" fill="#43DFF6"/>
<path d="M92.0588 628.104C92.3728 627.585 92.5503 626.996 92.5747 626.39C92.599 625.784 92.4694 625.182 92.1979 624.64C90.9936 624.606 89.7078 625.02 89.0056 625.997C88.3034 626.974 88.4391 628.558 89.4703 629.176C90.5016 629.793 92.1402 628.837 91.8756 627.656L92.0588 628.104Z" fill="#43DFF6"/>
<path d="M62.8327 361.728C62.9719 361.483 63.0531 361.21 63.0702 360.93C63.0873 360.649 63.0396 360.369 62.931 360.109C62.6847 360.177 62.4542 360.292 62.2525 360.449C62.1527 360.527 62.0785 360.634 62.0392 360.754C62 360.875 61.9974 361.005 62.032 361.127C62.1474 361.466 62.5545 361.541 62.8937 361.585L62.6698 361.761L62.8327 361.728Z" fill="#43DFF6"/>
<path d="M59.9291 358.905C59.9558 358.749 59.9308 358.588 59.8579 358.447C59.759 358.332 59.6279 358.249 59.4814 358.21C59.0936 358.059 58.72 357.874 58.3652 357.657L59.0166 359.624C59.0401 359.675 59.0506 359.731 59.0471 359.787C59.0471 359.977 58.7859 360.045 58.6672 360.198C58.4975 360.418 58.6468 360.74 58.8266 360.954C60.1259 362.47 59.8715 359.76 59.9291 358.905Z" fill="#43DFF6"/>
<path d="M69.5707 349.586C69.5164 349.389 69.4621 349.196 69.4112 348.999C69.2153 349.054 69.0418 349.17 68.9157 349.33C68.7895 349.489 68.7172 349.685 68.709 349.888C68.7293 350.292 69.2586 350.614 69.5707 350.356C69.764 350.2 70.0049 349.871 70.1576 350.068L69.5707 349.586Z" fill="#43DFF6"/>
<path d="M60.7635 368.217C60.8388 368.372 60.8649 368.546 60.8382 368.716C60.4243 368.577 60.2207 368.115 60.0918 367.698C60.0206 367.467 59.9731 367.169 60.1631 367.02C60.2988 366.914 60.5023 366.931 60.6482 366.881C60.9874 366.779 61.2588 366.385 61.5641 366.541C61.6444 366.594 61.7041 366.673 61.7331 366.764C61.7622 366.855 61.7588 366.954 61.7236 367.043C61.6491 367.22 61.5327 367.376 61.3844 367.498L60.482 368.373L60.7635 368.217Z" fill="#43DFF6"/>
<path d="M54.7247 370.938C54.8468 370.599 54.321 370.351 54.0462 370.548C53.9158 370.667 53.8114 370.811 53.7396 370.972C53.6678 371.133 53.6301 371.308 53.6289 371.484C53.8651 371.547 54.1147 371.538 54.346 371.459C54.5773 371.38 54.7799 371.234 54.9282 371.04L54.7247 370.938Z" fill="#43DFF6"/>
<path d="M55.6243 363.468C55.578 363.537 55.5068 363.584 55.4258 363.602C55.3447 363.619 55.2602 363.604 55.1901 363.559C55.1215 363.513 55.0635 363.452 55.0203 363.381C54.977 363.311 54.9493 363.231 54.939 363.149C54.9135 363.055 54.9135 362.955 54.939 362.861C54.9595 362.809 54.9902 362.761 55.0293 362.721C55.0684 362.681 55.1151 362.65 55.1667 362.628C55.2183 362.607 55.2736 362.596 55.3295 362.596C55.3854 362.596 55.4407 362.608 55.492 362.63C55.5916 362.684 55.6673 362.773 55.7044 362.879C55.7415 362.986 55.7371 363.103 55.6922 363.207C55.64 363.307 55.5544 363.385 55.4502 363.429C55.3461 363.472 55.23 363.478 55.1222 363.444L55.6243 363.468Z" fill="#43DFF6"/>
<path d="M57.8537 363.434C57.9394 363.444 58.0264 363.432 58.1059 363.399C58.1855 363.365 58.255 363.312 58.3075 363.243C58.3599 363.175 58.3935 363.093 58.405 363.008C58.4164 362.922 58.4053 362.835 58.3728 362.755C58.1914 362.718 58.0027 362.738 57.8333 362.813C57.7513 362.854 57.685 362.92 57.6445 363.002C57.604 363.085 57.5917 363.178 57.6095 363.268C57.6225 363.31 57.6455 363.349 57.6766 363.381C57.7077 363.412 57.7459 363.436 57.7881 363.45C57.8303 363.464 57.8752 363.468 57.9191 363.461C57.9629 363.454 58.0045 363.436 58.0403 363.41L57.8537 363.434Z" fill="#43DFF6"/>
<path d="M78.4744 351.374C78.5601 351.385 78.6472 351.373 78.7268 351.339C78.8065 351.306 78.8759 351.252 78.9282 351.183C78.9805 351.115 79.0137 351.033 79.0246 350.948C79.0354 350.862 79.0236 350.775 78.9901 350.695C78.81 350.654 78.6213 350.675 78.4541 350.753C78.371 350.793 78.3036 350.859 78.2624 350.941C78.2213 351.024 78.2087 351.117 78.2268 351.208C78.24 351.25 78.2634 351.289 78.2948 351.321C78.3263 351.353 78.365 351.377 78.4076 351.39C78.4503 351.404 78.4956 351.407 78.5397 351.399C78.5838 351.392 78.6254 351.374 78.661 351.347L78.4744 351.374Z" fill="#43DFF6"/>
<path d="M65.7404 364.126C65.898 363.984 66.0217 363.809 66.1021 363.612C66.1826 363.416 66.2178 363.205 66.2052 362.993L65.1875 363.152C65.0245 363.164 64.8677 363.219 64.7329 363.312C64.6773 363.368 64.6341 363.434 64.6063 363.508C64.5785 363.582 64.5665 363.66 64.5714 363.739C64.5762 363.817 64.5976 363.894 64.6342 363.964C64.6708 364.033 64.7218 364.094 64.7838 364.143C64.9171 364.232 65.0742 364.277 65.2342 364.274C65.3942 364.271 65.5495 364.22 65.6794 364.126H65.7404Z" fill="#43DFF6"/>
<path d="M52.4178 367.223C52.3566 367.33 52.2654 367.416 52.1555 367.472C52.0456 367.527 51.9218 367.549 51.7997 367.534C51.6775 367.52 51.5623 367.47 51.4683 367.39C51.3743 367.311 51.3058 367.206 51.2712 367.088C51.2237 366.928 51.2712 366.704 51.451 366.684C51.5215 366.683 51.5908 366.702 51.6511 366.738L52.4924 367.132L52.4009 367.264L52.4178 367.223Z" fill="#43DFF6"/>
<path d="M47.6109 366.874C47.387 366.67 47.0274 366.792 46.7594 366.938C46.4914 367.084 46.1725 367.247 45.9045 367.101C45.8667 367.083 45.8335 367.056 45.8076 367.024C45.7817 366.991 45.7638 366.952 45.7553 366.911C45.7315 366.697 46.0267 366.626 46.2065 366.511C46.3327 366.401 46.4465 366.279 46.5457 366.144C46.6913 366 46.877 365.903 47.0786 365.866C47.2801 365.829 47.4881 365.854 47.6754 365.937C47.7403 366.025 47.7795 366.129 47.7885 366.237C47.7975 366.346 47.7759 366.454 47.7263 366.551C47.6727 366.647 47.5928 366.726 47.4959 366.777C47.3991 366.829 47.2895 366.852 47.1801 366.843L47.6109 366.874Z" fill="#43DFF6"/>
<path d="M47.8957 363.838C47.8957 363.723 47.8957 363.604 47.8787 363.498C47.7906 363.459 47.6915 363.451 47.5981 363.475C47.5048 363.5 47.4227 363.556 47.3658 363.634C47.3381 363.674 47.3192 363.719 47.3104 363.766C47.3016 363.814 47.303 363.863 47.3146 363.91C47.3261 363.957 47.3476 364.001 47.3775 364.039C47.4075 364.077 47.4451 364.108 47.488 364.13C47.5313 364.149 47.5783 364.158 47.6254 364.155C47.6725 364.152 47.7184 364.139 47.7593 364.115C47.8002 364.092 47.8351 364.059 47.8611 364.02C47.8872 363.981 47.9036 363.936 47.9092 363.889L47.8957 363.838Z" fill="#43DFF6"/>
<path d="M40.4778 360.3C40.4778 360.184 40.4778 360.065 40.4778 359.96C40.3892 359.92 40.2896 359.912 40.1956 359.937C40.1016 359.961 40.019 360.018 39.9615 360.096C39.9338 360.135 39.9149 360.181 39.9061 360.228C39.8973 360.276 39.8987 360.325 39.9103 360.371C39.9219 360.418 39.9433 360.462 39.9732 360.5C40.0031 360.538 40.0408 360.57 40.0838 360.592C40.127 360.611 40.174 360.619 40.2211 360.617C40.2682 360.614 40.3141 360.601 40.355 360.577C40.396 360.554 40.4308 360.521 40.4569 360.482C40.4829 360.442 40.4994 360.397 40.505 360.351L40.4778 360.3Z" fill="#43DFF6"/>
<path d="M60.3972 363.186C60.2887 363.386 60.5296 363.621 60.7568 363.634C60.9848 363.615 61.2113 363.582 61.4353 363.536C61.5536 363.532 61.6713 363.553 61.7807 363.598C61.8901 363.643 61.9887 363.711 62.0697 363.797C62.1198 363.844 62.1567 363.904 62.1769 363.97C62.1971 364.036 62.1999 364.106 62.185 364.173C62.1483 364.258 62.0882 364.329 62.012 364.38C61.6755 364.685 61.2609 364.891 60.8145 364.974C60.5908 365.012 60.361 364.983 60.1535 364.892C59.946 364.8 59.7701 364.649 59.6475 364.458C59.5727 364.32 59.5361 364.163 59.5415 364.006C59.547 363.848 59.5943 363.695 59.6785 363.562C59.7628 363.428 59.881 363.32 60.021 363.247C60.161 363.175 60.3178 363.141 60.4753 363.149L60.3972 363.186Z" fill="#43DFF6"/>
<path d="M64.5827 358.735C64.6747 358.626 64.721 358.486 64.7122 358.344C64.7034 358.202 64.6399 358.069 64.5352 357.972C64.4246 357.881 64.2918 357.822 64.1504 357.799C64.009 357.777 63.8642 357.794 63.7312 357.847C63.6125 357.891 63.487 357.992 63.5107 358.114C63.5345 358.237 63.6057 358.254 63.6804 358.298L64.5827 358.84V358.735Z" fill="#43DFF6"/>
<path d="M58.9885 373.476C58.8714 373.553 58.7383 373.604 58.5989 373.623C58.4596 373.642 58.3178 373.63 58.184 373.586C58.0503 373.543 57.9281 373.47 57.8265 373.372C57.725 373.275 57.6467 373.156 57.5977 373.024C57.9657 372.76 58.4033 372.609 58.8562 372.59C59.304 372.617 59.7586 373.031 59.6501 373.469L59.0055 373.923L58.9885 373.476Z" fill="#43DFF6"/>
<path d="M43.5835 366.239C43.5692 366.27 43.5489 366.296 43.5237 366.318C43.4984 366.34 43.4689 366.357 43.437 366.367C43.4051 366.376 43.3715 366.38 43.3383 366.376C43.3052 366.372 43.2731 366.361 43.2443 366.345C43.1301 366.276 43.0445 366.169 43.0034 366.043C42.9577 365.946 42.9346 365.841 42.9356 365.734C42.9481 365.628 42.9963 365.53 43.0722 365.455C43.148 365.381 43.247 365.334 43.3528 365.323C43.4584 365.316 43.564 365.337 43.6588 365.384C43.7536 365.431 43.8341 365.503 43.8922 365.591C43.9231 365.633 43.9454 365.68 43.9576 365.73C43.9699 365.78 43.9719 365.832 43.9635 365.883C43.9536 365.934 43.9252 365.979 43.8837 366.01C43.8423 366.04 43.7909 366.055 43.7396 366.049L43.5835 366.239Z" fill="#43DFF6"/>
<path d="M56.452 360.537C56.452 360.415 56.4283 360.293 56.4181 360.174C56.2292 360.145 56.0361 360.186 55.8753 360.289C55.7328 360.415 55.7464 360.706 55.933 360.744C56.004 360.75 56.0754 360.737 56.1399 360.706L56.7743 360.466L56.452 360.537Z" fill="#43DFF6"/>
<path d="M69.5184 358.301C69.6291 358.022 69.6811 357.723 69.671 357.422C69.6644 357.272 69.6127 357.126 69.5226 357.005C69.4324 356.885 69.3081 356.793 69.1656 356.744C69.0193 356.71 68.8657 356.728 68.7313 356.795C68.6257 356.84 68.5305 356.906 68.4517 356.989C68.3729 357.073 68.3122 357.171 68.2734 357.279C68.2347 357.387 68.2187 357.502 68.2265 357.617C68.2344 357.731 68.2658 357.843 68.3189 357.945C68.372 358.046 68.4456 358.136 68.5351 358.208C68.6245 358.28 68.7278 358.332 68.8386 358.362C68.9494 358.392 69.0652 358.399 69.1786 358.382C69.2921 358.365 69.4008 358.325 69.498 358.264L69.5184 358.301Z" fill="#43DFF6"/>
<path d="M57.9375 381.716C57.8831 381.519 57.8288 381.322 57.771 381.125C57.614 381.131 57.46 381.171 57.3193 381.241C57.3108 381.392 57.3613 381.54 57.4603 381.654C57.5592 381.768 57.6987 381.839 57.8492 381.852L57.9375 381.716Z" fill="#43DFF6"/>
<path d="M37.8078 369.092C38.1219 368.574 38.2994 367.985 38.3237 367.38C38.3481 366.775 38.2184 366.173 37.9469 365.632C36.7426 365.598 35.4569 366.012 34.7547 366.989C34.0524 367.966 34.1847 369.55 35.2194 370.168C36.2541 370.785 37.8892 369.828 37.6246 368.645L37.8078 369.092Z" fill="#43DFF6"/>
<path d="M84.0936 408.428C84.1686 408.581 84.1947 408.754 84.1682 408.923C83.751 408.787 83.5508 408.326 83.4219 407.905C83.3507 407.671 83.3032 407.376 83.4931 407.227C83.6288 407.122 83.8324 407.142 83.9783 407.091C84.3175 406.989 84.5889 406.596 84.8942 406.752C84.9743 406.805 85.0337 406.885 85.0626 406.976C85.0916 407.068 85.0885 407.167 85.0537 407.257C84.9761 407.432 84.8601 407.588 84.7145 407.712L83.8087 408.587L84.0936 408.428Z" fill="#43DFF6"/>
<path d="M98.9077 385.217C98.9348 385.06 98.9098 384.899 98.8364 384.759C98.7368 384.643 98.6042 384.56 98.4564 384.521C98.07 384.369 97.6977 384.182 97.3438 383.965L97.9951 385.936C98.0153 385.986 98.0256 386.041 98.0256 386.095C98.0087 386.285 97.7644 386.353 97.6457 386.506C97.4761 386.726 97.6219 387.048 97.8051 387.262C99.101 388.779 98.85 386.068 98.9077 385.217Z" fill="#43DFF6"/>
<path d="M94.6023 389.776C94.5535 389.842 94.4827 389.887 94.4029 389.905C94.3231 389.922 94.2398 389.91 94.1681 389.871C94.0999 389.824 94.0421 389.763 93.9983 389.692C93.9545 389.622 93.9257 389.543 93.9137 389.461C93.8882 389.366 93.8882 389.267 93.9137 389.172C93.9338 389.12 93.9641 389.073 94.0029 389.033C94.0416 388.993 94.0881 388.962 94.1394 388.94C94.1907 388.919 94.2458 388.908 94.3014 388.908C94.3571 388.908 94.4121 388.92 94.4632 388.942C94.5625 388.994 94.6382 389.083 94.6753 389.189C94.7124 389.295 94.7081 389.412 94.6634 389.515C94.6124 389.615 94.5274 389.694 94.4237 389.738C94.3199 389.781 94.2041 389.786 94.0968 389.752L94.6023 389.776Z" fill="#43DFF6"/>
<path d="M71.1673 385.729C71.121 385.798 71.0497 385.845 70.9687 385.863C70.8877 385.88 70.8031 385.865 70.733 385.82C70.6648 385.774 70.6072 385.714 70.5639 385.644C70.5206 385.574 70.4927 385.495 70.482 385.413C70.4565 385.318 70.4565 385.217 70.482 385.122C70.5024 385.07 70.533 385.023 70.5719 384.984C70.6109 384.944 70.6574 384.913 70.7086 384.892C70.7599 384.87 70.8149 384.86 70.8704 384.86C70.9259 384.861 70.9807 384.872 71.0316 384.894C71.1315 384.947 71.2079 385.035 71.2457 385.141C71.2834 385.247 71.2796 385.364 71.2351 385.468C71.183 385.568 71.0974 385.646 70.9932 385.69C70.8891 385.733 70.773 385.739 70.6652 385.705L71.1673 385.729Z" fill="#43DFF6"/>
<path d="M96.8314 389.742C96.9171 389.753 97.0042 389.741 97.0838 389.708C97.1635 389.674 97.2329 389.621 97.2852 389.552C97.3375 389.483 97.3707 389.402 97.3816 389.316C97.3924 389.23 97.3805 389.143 97.3471 389.064C97.1672 389.023 96.9791 389.042 96.811 389.118C96.7284 389.158 96.6613 389.224 96.6202 389.307C96.5791 389.389 96.5663 389.482 96.5838 389.573C96.5973 389.615 96.6207 389.654 96.6521 389.686C96.6835 389.717 96.722 389.741 96.7644 389.755C96.8068 389.769 96.8519 389.773 96.896 389.766C96.9401 389.759 96.9819 389.741 97.018 389.715L96.8314 389.742Z" fill="#43DFF6"/>
<path d="M88.0524 388.806C87.7573 388.88 87.6589 389.243 87.6318 389.549C87.6046 389.854 87.5605 390.21 87.2925 390.353C87.2552 390.372 87.214 390.382 87.1721 390.382C87.1302 390.382 87.0889 390.372 87.0516 390.353C86.8617 390.254 86.9668 389.973 86.9702 389.759C86.9556 389.588 86.9191 389.419 86.8617 389.257C86.8234 389.056 86.8467 388.848 86.9284 388.66C87.0101 388.473 87.1464 388.314 87.3196 388.205C87.4288 388.2 87.5373 388.226 87.6326 388.279C87.728 388.332 87.8064 388.411 87.859 388.507C87.9083 388.606 87.9284 388.716 87.917 388.825C87.9055 388.935 87.8631 389.039 87.7946 389.125L88.0524 388.806Z" fill="#43DFF6"/>
<path d="M85.6886 386.879L85.3896 386.696C85.3078 386.747 85.2461 386.825 85.2146 386.917C85.1831 387.008 85.1837 387.107 85.2164 387.198C85.2337 387.244 85.2605 387.284 85.2949 387.318C85.3293 387.352 85.3706 387.378 85.4159 387.395C85.4612 387.412 85.5096 387.419 85.5578 387.415C85.606 387.412 85.6528 387.398 85.6953 387.375C85.7353 387.35 85.7689 387.315 85.7932 387.275C85.8175 387.234 85.8318 387.188 85.8351 387.141C85.8384 387.093 85.8306 387.046 85.8122 387.002C85.7938 386.959 85.7654 386.92 85.7293 386.889L85.6886 386.879Z" fill="#43DFF6"/>
<path d="M78.6317 391.069L78.3294 390.882C78.2473 390.934 78.1854 391.013 78.1539 391.105C78.1224 391.197 78.1232 391.297 78.1561 391.388C78.1759 391.432 78.2041 391.471 78.2391 391.503C78.2742 391.536 78.3153 391.561 78.3603 391.578C78.4052 391.594 78.4529 391.601 78.5007 391.599C78.5484 391.597 78.5953 391.585 78.6385 391.565C78.6779 391.539 78.7109 391.504 78.7347 391.464C78.7586 391.423 78.7727 391.377 78.776 391.33C78.7793 391.283 78.7716 391.236 78.7537 391.192C78.7357 391.149 78.7079 391.11 78.6724 391.079L78.6317 391.069Z" fill="#43DFF6"/>
<path d="M85.2629 391.788C85.2801 391.816 85.2913 391.847 85.2958 391.88C85.3003 391.913 85.2981 391.946 85.2892 391.978C85.2803 392.01 85.2649 392.039 85.2441 392.065C85.2232 392.091 85.1973 392.112 85.1679 392.127C85.0476 392.181 84.9121 392.192 84.7846 392.157C84.6776 392.142 84.5755 392.103 84.4861 392.042C84.4065 391.972 84.3529 391.876 84.3339 391.772C84.3148 391.667 84.3314 391.559 84.3809 391.465C84.4334 391.374 84.5096 391.298 84.6016 391.246C84.6935 391.194 84.7977 391.168 84.9033 391.17C84.9547 391.167 85.0063 391.174 85.0547 391.192C85.1031 391.209 85.1474 391.237 85.1849 391.272C85.2202 391.31 85.2398 391.359 85.2398 391.411C85.2398 391.463 85.2202 391.512 85.1849 391.55L85.2629 391.788Z" fill="#43DFF6"/>
<path d="M95.4309 386.845C95.4309 386.726 95.4071 386.604 95.3935 386.482C95.2052 386.452 95.0127 386.495 94.8541 386.601C94.7116 386.723 94.7252 387.015 94.9084 387.052C94.9796 387.06 95.0515 387.047 95.1153 387.015L95.7531 386.774L95.4309 386.845Z" fill="#43DFF6"/>
<path d="M57.2584 334.256C57.3839 333.916 56.8547 333.665 56.5799 333.862C56.45 333.982 56.3463 334.127 56.2751 334.289C56.2038 334.451 56.1667 334.625 56.166 334.802C56.4023 334.864 56.6516 334.855 56.8827 334.776C57.1138 334.697 57.3165 334.551 57.4653 334.357L57.2584 334.256Z" fill="#43DFF6"/>
<path d="M35.7508 353.813C35.7056 353.883 35.6346 353.932 35.5532 353.95C35.4719 353.968 35.3868 353.953 35.3165 353.908C35.2483 353.86 35.1905 353.8 35.1468 353.729C35.103 353.658 35.0742 353.58 35.0621 353.497C35.0366 353.403 35.0366 353.303 35.0621 353.209C35.0822 353.157 35.1125 353.11 35.1513 353.07C35.1901 353.03 35.2366 352.998 35.2879 352.977C35.3392 352.955 35.3943 352.944 35.4499 352.945C35.5056 352.945 35.5606 352.956 35.6117 352.978C35.7115 353.031 35.7878 353.119 35.825 353.225C35.8621 353.332 35.8574 353.448 35.8118 353.552C35.7604 353.652 35.6755 353.73 35.5721 353.774C35.4686 353.818 35.353 353.825 35.2453 353.792L35.7508 353.813Z" fill="#43DFF6"/>
<path d="M32.5448 357.572C32.4813 357.677 32.3893 357.762 32.2794 357.817C32.1696 357.873 32.0463 357.896 31.9239 357.884C31.8028 357.867 31.6891 357.816 31.596 357.736C31.5029 357.657 31.4343 357.553 31.3981 357.436C31.3506 357.273 31.3981 357.053 31.5779 357.032C31.6478 357.033 31.7165 357.05 31.7781 357.083L32.616 357.48L32.5278 357.612L32.5448 357.572Z" fill="#43DFF6"/>
<path d="M52.4625 416.97C52.2352 416.766 51.8756 416.888 51.611 417.034C51.3464 417.18 51.0207 417.346 50.7527 417.2C50.7148 417.183 50.6818 417.156 50.6564 417.123C50.631 417.09 50.614 417.052 50.6068 417.01C50.5831 416.797 50.8748 416.725 51.0546 416.61C51.1818 416.501 51.2956 416.376 51.3939 416.24C51.5394 416.096 51.7252 415.999 51.9267 415.962C52.1283 415.925 52.3363 415.95 52.5236 416.033C52.5923 416.12 52.6341 416.224 52.6436 416.334C52.6531 416.444 52.63 416.554 52.5771 416.651C52.5242 416.748 52.4438 416.827 52.3462 416.878C52.2486 416.929 52.1379 416.951 52.0282 416.939L52.4625 416.97Z" fill="#43DFF6"/>
<path d="M28.0202 354.187C28.0202 354.068 28.0202 353.952 28.0202 353.847C27.9317 353.808 27.8325 353.801 27.7393 353.826C27.646 353.852 27.5642 353.908 27.5073 353.986C27.4795 354.026 27.4605 354.071 27.4514 354.118C27.4423 354.165 27.4434 354.214 27.4547 354.261C27.4659 354.308 27.487 354.352 27.5166 354.39C27.5462 354.428 27.5835 354.46 27.6262 354.482C27.6696 354.501 27.7169 354.509 27.7642 354.507C27.8114 354.504 27.8575 354.491 27.8986 354.467C27.9398 354.444 27.975 354.411 28.0014 354.372C28.0278 354.333 28.0447 354.288 28.0508 354.241L28.0202 354.187Z" fill="#43DFF6"/>
<path d="M20.6211 350.635C20.6211 350.516 20.6211 350.4 20.6211 350.295C20.5324 350.256 20.433 350.248 20.3392 350.273C20.2454 350.297 20.1627 350.353 20.1048 350.431C20.0796 350.472 20.0627 350.517 20.0552 350.564C20.0477 350.611 20.0497 350.66 20.0611 350.706C20.0725 350.753 20.093 350.797 20.1215 350.835C20.15 350.873 20.1859 350.906 20.2271 350.93C20.2703 350.949 20.3173 350.958 20.3644 350.955C20.4115 350.953 20.4574 350.939 20.4983 350.916C20.5393 350.892 20.5741 350.859 20.6002 350.82C20.6262 350.781 20.6427 350.736 20.6483 350.689L20.6211 350.635Z" fill="#43DFF6"/>
<path d="M39.1168 363.824C38.9985 363.904 38.8632 363.956 38.7216 363.976C38.5799 363.996 38.4356 363.983 38.2997 363.939C38.1637 363.894 38.0398 363.819 37.9374 363.719C37.835 363.619 37.7569 363.497 37.709 363.363C38.0783 363.101 38.5153 362.951 38.9676 362.932C39.4188 362.959 39.87 363.373 39.7614 363.807L39.1202 364.265L39.1168 363.824Z" fill="#43DFF6"/>
<path d="M23.7071 356.568C23.6932 356.598 23.673 356.625 23.648 356.648C23.6229 356.67 23.5934 356.687 23.5615 356.697C23.5296 356.707 23.4959 356.711 23.4625 356.707C23.4292 356.703 23.397 356.693 23.3679 356.676C23.2537 356.608 23.1682 356.501 23.1271 356.374C23.0779 356.278 23.0545 356.17 23.0592 356.062C23.0711 355.957 23.1188 355.859 23.1941 355.785C23.2694 355.711 23.3679 355.665 23.4731 355.655C23.5788 355.647 23.6848 355.667 23.7798 355.715C23.8748 355.762 23.9552 355.834 24.0125 355.923C24.0435 355.964 24.0659 356.011 24.0781 356.062C24.0904 356.112 24.0923 356.164 24.0837 356.215C24.0745 356.266 24.0463 356.311 24.0047 356.342C23.9631 356.373 23.9113 356.387 23.8598 356.381L23.7071 356.568Z" fill="#43DFF6"/>
<path d="M38.0727 372.065C38.0183 371.868 37.9606 371.671 37.9062 371.474C37.7493 371.479 37.5953 371.517 37.4545 371.586C37.4441 371.737 37.4936 371.885 37.5922 372C37.6907 372.114 37.8304 372.185 37.981 372.198L38.0727 372.065Z" fill="#43DFF6"/>
<path d="M33.6856 344.942C33.6312 344.745 33.5769 344.548 33.5191 344.351C33.362 344.357 33.2079 344.397 33.0673 344.467C33.0588 344.617 33.1089 344.765 33.2071 344.879C33.3053 344.993 33.444 345.065 33.5939 345.078L33.6856 344.942Z" fill="#43DFF6"/>
</g>
<defs>
<filter id="filter0_d_325_9734" x="-1244" y="0.533447" width="2788" height="6800.47" filterUnits="userSpaceOnUse" color-interpolation-filters="sRGB">
<feFlood flood-opacity="0" result="BackgroundImageFix"/>
<feColorMatrix in="SourceAlpha" type="matrix" values="0 0 0 0 0 0 0 0 0 0 0 0 0 0 0 0 0 0 127 0" result="hardAlpha"/>
<feOffset dy="4"/>
<feGaussianBlur stdDeviation="100"/>
<feComposite in2="hardAlpha" operator="out"/>
<feColorMatrix type="matrix" values="0 0 0 0 0.203922 0 0 0 0 0.258824 0 0 0 0 0.733333 0 0 0 0.92 0"/>
<feBlend mode="normal" in2="BackgroundImageFix" result="effect1_dropShadow_325_9734"/>
<feBlend mode="normal" in="SourceGraphic" in2="effect1_dropShadow_325_9734" result="shape"/>
</filter>
<radialGradient id="paint0_radial_325_9734" cx="0" cy="0" r="1" gradientUnits="userSpaceOnUse" gradientTransform="translate(-109.163 349.647) scale(383.005)">
<stop offset="0.39" stop-color="#465BEF"/>
<stop offset="0.5" stop-color="#4458EA"/>
<stop offset="0.63" stop-color="#3D4EDC"/>
<stop offset="0.76" stop-color="#313EC5"/>
<stop offset="0.9" stop-color="#2227A5"/>
<stop offset="1" stop-color="#141489"/>
</radialGradient>
<radialGradient id="paint1_radial_325_9734" cx="0" cy="0" r="1" gradientUnits="userSpaceOnUse" gradientTransform="translate(3.4426 275.102) scale(217.275)">
<stop stop-color="#46CCEF"/>
<stop offset="0.2" stop-color="#41BEEC"/>
<stop offset="0.57" stop-color="#3399E5"/>
<stop offset="1" stop-color="#2066DB"/>
</radialGradient>
<radialGradient id="paint2_radial_325_9734" cx="0" cy="0" r="1" gradientUnits="userSpaceOnUse" gradientTransform="translate(65516.4 9970.66) scale(24473.8 15799.6)">
<stop stop-color="#46CCEF"/>
<stop offset="0.2" stop-color="#41BEEC"/>
<stop offset="0.57" stop-color="#3399E5"/>
<stop offset="1" stop-color="#2066DB"/>
</radialGradient>
<radialGradient id="paint3_radial_325_9734" cx="0" cy="0" r="1" gradientUnits="userSpaceOnUse" gradientTransform="translate(24922 4873.41) scale(9346.3 7442.16)">
<stop stop-color="#46CCEF"/>
<stop offset="0.2" stop-color="#41BEEC"/>
<stop offset="0.57" stop-color="#3399E5"/>
<stop offset="1" stop-color="#2066DB"/>
</radialGradient>
<radialGradient id="paint4_radial_325_9734" cx="0" cy="0" r="1" gradientUnits="userSpaceOnUse" gradientTransform="translate(56.5228 307.92) scale(353.307)">
<stop stop-color="#C2F7EF"/>
<stop offset="0.13" stop-color="#B4EAED"/>
<stop offset="0.39" stop-color="#8FC9E9"/>
<stop offset="0.73" stop-color="#5394E1"/>
<stop offset="1" stop-color="#2066DB"/>
</radialGradient>
</defs>
</svg>
